<?xml version="1.0" encoding="UTF-8"?>
<svg version="1.1" xmlns="http://www.w3.org/2000/svg" width="1042" height="1042" viewBox="0 0 1042 1042">
<path d="M0 0 C0.98806641 0.31694824 1.97613281 0.63389648 2.99414062 0.96044922 C54.15450148 17.59705341 103.369559 44.11051605 144.078125 79.48046875 C146.91924317 81.93036343 149.82040522 84.28213345 152.75 86.625 C156.98786525 90.06941878 160.86421539 93.71767622 164.63671875 97.6640625 C166.62975522 99.63403905 168.6599853 101.44740255 170.78515625 103.26953125 C175.04226097 106.96465663 178.91230797 110.93817142 182.75 115.0625 C183.44319336 115.80419434 184.13638672 116.54588867 184.85058594 117.31005859 C191.10378828 124.04039556 197.14052549 130.92531619 203 138 C203.47856445 138.57363281 203.95712891 139.14726562 204.45019531 139.73828125 C221.91520911 160.75688358 236.88435342 183.8047638 249.83398438 207.84423828 C250.95320821 209.91349006 252.09158938 211.97103506 253.234375 214.02734375 C278.97109475 260.82189776 293.81372632 314.12228131 300 367 C300.11714355 367.94037109 300.23428711 368.88074219 300.35498047 369.84960938 C311.1236292 459.26299585 290.09095371 550.1839549 236 649 C235.56349121 649.68046387 235.12698242 650.36092773 234.67724609 651.06201172 C231.85702633 655.42518941 228.95848574 659.72954191 226 664 C225.59571777 664.58442871 225.19143555 665.16885742 224.77490234 665.77099609 C214.99068447 679.84429244 204.31354265 693.13079662 193 706 C192.20980469 706.90363281 191.41960938 707.80726563 190.60546875 708.73828125 C184.62542094 715.41390813 178.33723887 721.79016301 172.02529907 728.14993286 C171.02569029 729.15758155 170.02756645 730.16670601 169.03109741 731.17745972 C163.16577802 737.11787543 157.14181067 742.67759346 150.60644531 747.89038086 C148.12776498 749.89658887 145.75397449 751.97716888 143.390625 754.1171875 C139.02166159 758.0384 134.4562807 761.61905857 129.75 765.125 C128.88793945 765.76751709 128.02587891 766.41003418 127.13769531 767.07202148 C110.16114695 779.61102904 92.40286003 790.68300263 74 801 C73.17290527 801.46390137 72.34581055 801.92780273 71.49365234 802.40576172 C28.65157645 826.20099799 -19.63893682 841.44675337 -68 848.8125 C-69.27278809 849.00730957 -70.54557617 849.20211914 -71.85693359 849.40283203 C-92.5467447 852.3961954 -113.03942192 853.37561686 -133.9375 853.3125 C-135.1917981 853.31067719 -136.44609619 853.30885437 -137.73840332 853.30697632 C-156.6698144 853.26070141 -175.25273843 852.79761415 -194 850 C-195.20285645 849.82307617 -196.40571289 849.64615234 -197.64501953 849.46386719 C-242.41500916 842.68426107 -285.19036682 829.59479552 -326 810 C-327.34650635 809.35562988 -327.34650635 809.35562988 -328.72021484 808.69824219 C-361.78040835 792.78377439 -392.31661412 772.03879446 -420 748 C-420.73476563 747.36578125 -421.46953125 746.7315625 -422.2265625 746.078125 C-424.16183296 744.39729248 -426.08116057 742.6995435 -428 741 C-428.67289063 740.41992188 -429.34578125 739.83984375 -430.0390625 739.2421875 C-436.15950427 733.87891379 -441.92550047 728.18128107 -447.6875 722.4375 C-448.49550049 721.6340918 -449.30350098 720.83068359 -450.13598633 720.00292969 C-454.96386885 715.16264381 -459.55675401 710.19371564 -464 705 C-464.96101746 703.90517603 -465.92320394 702.81137679 -466.88671875 701.71875 C-474.38403126 693.13623058 -481.30129682 684.21591094 -488 675 C-488.73452393 673.99694824 -488.73452393 673.99694824 -489.48388672 672.97363281 C-534.24051873 611.67490239 -562.09635185 538.44732478 -570 463 C-570.10441406 462.01112793 -570.20882812 461.02225586 -570.31640625 460.00341797 C-578.88991384 374.71600942 -561.60160126 290.22190982 -500 175 C-499.45053711 174.19288574 -498.90107422 173.38577148 -498.33496094 172.55419922 C-481.51388021 147.95184246 -462.59371282 125.40502211 -441.52050781 104.33520508 C-439.99513287 102.80762584 -438.47799328 101.27216418 -436.9609375 99.73632812 C-430.63195797 93.3717245 -424.0277756 87.59775489 -417 82 C-415.91005596 81.07675858 -414.82542793 80.14714161 -413.75 79.20703125 C-346.53568697 20.68093198 -256.46845881 -13.67270552 -168 -20 C-167.22430664 -20.05639648 -166.44861328 -20.11279297 -165.64941406 -20.17089844 C-109.61513614 -24.03769834 -53.44214227 -17.1590386 0 0 Z " fill="#344CA3" transform="translate(659,93)"/>
<path d="M0 0 C16.01392955 12.12920863 28.87756076 30.10888338 31.96972656 50.33544922 C34.55648142 74.4440045 30.44797144 97.16788194 15.02685547 116.47851562 C2.90354796 130.33674672 -10.21209805 138.62729883 -27.77392578 143.72460938 C-28.53962891 143.97210938 -29.30533203 144.21960938 -30.09423828 144.47460938 C-48.0437591 149.54270937 -67.18960792 144.46002325 -83.07080078 135.86914062 C-97.00668617 127.98097117 -106.97714014 117.67428008 -114.77392578 103.72460938 C-114.77392578 103.06460938 -114.77392578 102.40460938 -114.77392578 101.72460938 C-143.16531741 101.76097922 -171.55660048 101.81772317 -199.94789132 101.90253033 C-203.30705732 101.91254663 -206.66622381 101.92239096 -210.02539062 101.93212891 C-211.02842766 101.93504097 -211.02842766 101.93504097 -212.05172807 101.93801185 C-222.84971308 101.96895182 -233.6476769 101.98599006 -244.44569784 101.9978036 C-255.54255797 102.01025681 -266.63930397 102.03814525 -277.73609495 102.07922244 C-283.96182163 102.10178682 -290.18739104 102.11752306 -296.41316223 102.11649323 C-302.28354647 102.11574365 -308.15358371 102.13381361 -314.0238781 102.16577721 C-316.16829277 102.17423478 -318.31274656 102.17605461 -320.45717049 102.17041206 C-344.59259697 102.11540744 -363.56487834 107.19503719 -381.77392578 123.72460938 C-382.46744141 124.31371094 -383.16095703 124.9028125 -383.87548828 125.50976562 C-399.55947827 139.72533424 -407.33090944 162.11137216 -408.77392578 182.72460938 C-410.06399692 213.0987842 -405.94630412 241.34620424 -384.90673828 264.80664062 C-377.941083 272.1219774 -369.92226885 277.31520698 -361.02392578 281.97460938 C-360.11416992 282.46864258 -360.11416992 282.46864258 -359.18603516 282.97265625 C-347.41719468 288.89949764 -334.74986177 289.14446084 -321.89892578 288.91210938 C-320.4210751 288.89700938 -318.94320919 288.88333053 -317.46533203 288.87109375 C-313.90120498 288.83856829 -310.33766882 288.78709183 -306.77392578 288.72460938 C-307.25748535 288.11842773 -307.74104492 287.51224609 -308.23925781 286.88769531 C-308.87202637 286.0862207 -309.50479492 285.28474609 -310.15673828 284.45898438 C-310.78467285 283.66717773 -311.41260742 282.87537109 -312.05957031 282.05957031 C-317.56395925 274.56256435 -318.62094365 265.8032094 -317.77392578 256.72460938 C-315.04932576 245.25015102 -308.69920279 236.97753389 -298.77392578 230.72460938 C-291.65813307 227.08936745 -283.08291246 226.16379202 -275.39616394 228.42366028 C-268.44576841 230.82929254 -262.64568789 233.99971915 -256.56689453 238.10742188 C-255.63903641 238.72173065 -254.71117828 239.33603943 -253.75520325 239.96896362 C-250.81675033 241.91861013 -247.88923194 243.88402144 -244.96142578 245.84960938 C-243.01091172 247.14487135 -241.0597443 248.43915 -239.10791016 249.73242188 C-230.64354938 255.35639794 -222.23997073 261.03962973 -214.01260376 267.00523376 C-209.13637581 270.51798612 -204.14007783 273.83720465 -199.12158203 277.14257812 C-198.28314255 277.69550537 -197.44470306 278.24843262 -196.58085632 278.81811523 C-193.12250313 281.09647623 -189.66260904 283.37234446 -186.19555664 285.63745117 C-183.62425726 287.31922771 -181.06001327 289.01134073 -178.49658203 290.70507812 C-177.7235524 291.20629684 -176.95052277 291.70751556 -176.15406799 292.22392273 C-169.51349994 296.62993747 -163.30187368 301.53123273 -159.89892578 308.91210938 C-159.50962891 309.73066406 -159.12033203 310.54921875 -158.71923828 311.39257812 C-155.00347332 320.55915532 -155.72849433 331.17492358 -159.51220703 340.18945312 C-163.76365009 348.73182633 -168.45703288 354.84838488 -177.52696228 358.3331604 C-184.32050971 360.50813745 -191.36058943 360.14357999 -198.4128418 360.11279297 C-199.98425154 360.11686428 -201.55565842 360.12220928 -203.12705994 360.12872314 C-207.37547173 360.142344 -211.62366374 360.13711772 -215.87207913 360.12758589 C-220.33822265 360.11995269 -224.80434824 360.12704589 -229.27049255 360.13174438 C-236.77630969 360.13719528 -244.28203815 360.13003197 -251.7878418 360.11572266 C-260.42819828 360.0994391 -269.06834187 360.10465601 -277.70869309 360.12120187 C-285.15621511 360.13488573 -292.60367359 360.13670167 -300.05120414 360.12888587 C-304.48603571 360.12424166 -308.92076781 360.1234929 -313.35559273 360.13349533 C-317.53443105 360.14226224 -321.71299979 360.13596886 -325.89180946 360.11881256 C-327.41218369 360.11489715 -328.93258122 360.11589501 -330.45294571 360.12260056 C-344.48999878 360.17872595 -357.76276308 358.20269812 -371.08642578 353.59960938 C-372.40054443 353.15065308 -372.40054443 353.15065308 -373.74121094 352.69262695 C-413.57177114 338.66994995 -444.26259837 310.68492515 -462.83642578 272.84960938 C-466.34772042 265.45441749 -469.27087537 257.97586615 -471.71142578 250.16210938 C-471.98156494 249.31471191 -472.2517041 248.46731445 -472.5300293 247.59423828 C-477.49062344 230.71973856 -478.32219956 213.44885599 -478.21142578 195.97460938 C-478.20871674 194.96846588 -478.20600769 193.96232239 -478.20321655 192.9256897 C-478.14171641 177.84887618 -477.48827202 163.40673129 -473.77392578 148.72460938 C-473.50902344 147.59563232 -473.50902344 147.59563232 -473.23876953 146.44384766 C-467.93692684 124.17119922 -456.76630022 102.98053839 -441.77392578 85.72460938 C-441.05462891 84.89574219 -440.33533203 84.066875 -439.59423828 83.21289062 C-437.35494767 80.68303462 -435.07571565 78.19763966 -432.77392578 75.72460938 C-432.11134766 74.99628906 -431.44876953 74.26796875 -430.76611328 73.51757812 C-407.88883111 49.37900093 -372.86326773 33.01297156 -339.55300522 31.63257301 C-337.11216414 31.59956191 -334.67310774 31.59604882 -332.23205566 31.60435486 C-331.30233743 31.60350043 -330.3726192 31.60264601 -329.41472769 31.60176569 C-326.31634148 31.60012571 -323.21801008 31.60560791 -320.11962891 31.61108398 C-317.89187623 31.6113662 -315.66412347 31.61120745 -313.43637085 31.61064148 C-307.39983885 31.61035486 -301.36332677 31.61622984 -295.32679939 31.62321544 C-289.01405056 31.62947139 -282.70130126 31.63005455 -276.3885498 31.63124084 C-265.79662743 31.63399469 -255.20471156 31.64023873 -244.61279297 31.64916992 C-233.7058923 31.65835712 -222.79899361 31.66543155 -211.89208984 31.66967773 C-211.21913063 31.66994046 -210.54617142 31.67020318 -209.8528195 31.67047387 C-206.47658449 31.67177896 -203.10034946 31.67304265 -199.72411442 31.67428577 C-171.74071314 31.68464265 -143.75731991 31.70232185 -115.77392578 31.72460938 C-115.335 30.33483887 -115.335 30.33483887 -114.88720703 28.91699219 C-108.90886505 11.77383434 -92.09868928 -0.94467983 -76.33642578 -8.58789062 C-74.82917426 -9.18583136 -73.3062141 -9.74488823 -71.77392578 -10.27539062 C-70.73623047 -10.64535156 -69.69853516 -11.0153125 -68.62939453 -11.39648438 C-45.38539754 -18.67439893 -19.73049122 -14.18553346 0 0 Z " fill="#FEFEFE" transform="translate(713.77392578125,245.275390625)"/>
<path d="M0 0 C0.65054316 -0.00438225 1.30108633 -0.00876451 1.97134292 -0.01327956 C4.1562624 -0.02665691 6.34114154 -0.03284455 8.52609253 -0.03897095 C10.09186484 -0.04687413 11.65763534 -0.05514322 13.22340393 -0.06375122 C18.37880715 -0.08999424 23.53421847 -0.10530294 28.68966675 -0.11953735 C30.47184122 -0.12490022 32.25401565 -0.13027774 34.03619003 -0.13566971 C41.46682851 -0.15732115 48.89746484 -0.17604516 56.32812691 -0.1872921 C66.92399895 -0.20343969 77.51949886 -0.23636475 88.11523068 -0.29369295 C95.58908049 -0.33272311 103.06283231 -0.35196465 110.53678119 -0.35721266 C114.98497805 -0.3608276 119.43277837 -0.37242434 123.88086319 -0.4053154 C171.09616138 -0.73696374 210.94779743 10.4322153 245.943573 43.4390564 C250.19232814 47.74983716 253.95876329 52.33950191 257.61935425 57.15390015 C258.29611206 58.02659546 258.97286987 58.89929077 259.6701355 59.7984314 C268.36033864 71.32349692 274.86603572 83.96552384 280.61935425 97.15390015 C280.99833862 98.01757202 281.377323 98.8812439 281.76779175 99.77108765 C298.61078618 141.94594569 294.88187274 196.30810093 277.8107605 237.61483765 C261.58425425 275.01751208 230.0868188 303.90255772 192.61935425 319.15390015 C189.31558764 320.38530993 185.98852231 321.49064291 182.61935425 322.52890015 C181.53835449 322.86848755 181.53835449 322.86848755 180.43551636 323.2149353 C164.10292583 327.92486445 147.67682853 328.58611046 130.80807495 328.49447632 C128.58855196 328.49362785 126.36902812 328.49410946 124.14950562 328.49580383 C118.18586913 328.49665665 112.22241754 328.47914779 106.25882363 328.45808196 C100.00353728 328.43919483 93.74824565 328.43755531 87.49293518 328.43400574 C77.01380312 328.42577212 66.53473357 328.40709573 56.05563354 328.38021851 C45.27243377 328.35259045 34.4892523 328.33139997 23.70602417 328.31869507 C23.03894191 328.3179069 22.37185965 328.31711873 21.68456278 328.31630667 C18.33728892 328.31239095 14.99001492 328.30859997 11.64274085 328.30487096 C-16.0317679 328.27360152 -43.70620208 328.22091 -71.38064575 328.15390015 C-71.68373657 329.09088745 -71.98682739 330.02787476 -72.29910278 330.99325562 C-77.27185391 345.52536309 -90.29610725 356.92993254 -103.38064575 364.15390015 C-104.39191528 364.73204468 -104.39191528 364.73204468 -105.4236145 365.3218689 C-111.11085705 368.38242623 -117.21636189 370.29142935 -123.38064575 372.15390015 C-124.0973645 372.38335327 -124.81408325 372.6128064 -125.55252075 372.84921265 C-142.89788607 377.62254961 -162.8594076 373.28745515 -178.38064575 365.15390015 C-198.23139787 353.29795895 -212.64366196 335.00841667 -218.38064575 312.46640015 C-222.45502136 289.29838197 -218.65714707 266.7969292 -205.43533325 247.2828064 C-203.51563726 244.79186484 -201.51196938 242.46577789 -199.38064575 240.15390015 C-198.60849731 239.30182983 -197.83634888 238.44975952 -197.040802 237.5718689 C-183.00585328 222.78306827 -164.42993376 214.44665488 -144.08303833 213.75106812 C-123.48359635 213.47398933 -104.68260555 220.11368089 -89.38064575 234.15390015 C-88.62525513 234.81776733 -87.8698645 235.48163452 -87.09158325 236.1656189 C-82.97087206 239.99603944 -80.24067429 243.34552629 -77.8612684 248.4792605 C-75.82634765 252.51355166 -73.70750088 256.22787226 -69.35797834 257.95886922 C-63.11763518 259.27182785 -56.74035376 258.93937229 -50.40164185 258.79086304 C-48.25718099 258.79182601 -46.11271546 258.7989191 -43.96829224 258.81166077 C-38.15652735 258.82846835 -32.34870078 258.75857801 -26.53767347 258.67220998 C-20.44295784 258.59563404 -14.34823412 258.5964183 -8.25311279 258.58808899 C1.9881049 258.56324499 12.22785712 258.48700244 22.46847534 258.37484741 C36.87251649 258.21724818 51.27578006 258.15700805 65.68055081 258.11410916 C75.69273754 258.08050811 85.70480959 258.02288543 95.71685743 257.96117091 C98.13471033 257.94643716 100.55256771 257.93242058 102.97042894 257.91912389 C109.87356312 257.88048912 116.77624901 257.82674261 123.67906189 257.74933052 C125.76259852 257.72794759 127.84619036 257.71129015 129.92980576 257.6999321 C158.37755883 257.53420693 179.92340331 250.81200503 200.54904175 230.2281189 C208.35641218 221.84820797 212.80611623 212.37401159 216.43185425 201.65390015 C216.86691284 200.37349854 216.86691284 200.37349854 217.3107605 199.06723022 C220.99830636 187.62518419 221.98626827 176.51224674 221.93185425 164.52890015 C221.92812302 163.54294861 221.92812302 163.54294861 221.92431641 162.53707886 C221.76989389 136.07908746 215.61830805 113.29861754 197.084198 93.52890015 C181.2177851 78.24081926 162.03393458 70.50749794 140.21505737 70.80233765 C138.70397942 70.83573163 137.1929117 70.86959103 135.68185425 70.90390015 C134.11221607 70.92403412 132.54255239 70.94227248 130.97286987 70.95858765 C127.18771559 71.00195062 123.40383097 71.07057692 119.61935425 71.15390015 C120.22879883 71.84008423 120.22879883 71.84008423 120.85055542 72.54013062 C126.22133227 78.67700806 126.22133227 78.67700806 127.93185425 82.27890015 C128.23736206 82.90022827 128.54286987 83.5215564 128.8576355 84.16171265 C132.03777393 92.47899778 131.76105454 102.17011516 128.61935425 110.40390015 C124.22403747 119.7501215 118.01252937 125.94377646 108.61935425 130.15390015 C107.69122925 130.58702515 106.76310425 131.02015015 105.80685425 131.46640015 C95.11407027 133.77268689 85.88573341 131.85750168 76.5229187 126.32382202 C73.01002049 124.01446318 69.56048167 121.63056968 66.11935425 119.21640015 C64.79553604 118.30142062 63.47071483 117.38789087 62.14498901 116.47567749 C59.99518751 114.99620772 57.84607453 113.51582279 55.69981384 112.03121948 C46.97723011 106.00046769 38.17284433 100.09156272 29.37335205 94.17388916 C24.75983234 91.06983236 20.15052817 87.95953214 15.54122925 84.84921265 C14.2364991 83.9688459 14.2364991 83.9688459 12.90541077 83.07069397 C11.24060612 81.94731772 9.57583512 80.82389161 7.91110229 79.70040894 C6.46020537 78.72132014 5.0092088 77.74237897 3.55807495 76.76364136 C-0.19560639 74.23187028 -3.9458294 71.69508913 -7.69314575 69.15390015 C-8.52660522 68.59203003 -9.3600647 68.03015991 -10.21878052 67.45126343 C-19.97586512 60.81531513 -26.7408527 54.60704592 -29.87283325 42.8531189 C-31.79838911 32.61804889 -30.28862726 23.63264934 -24.9079895 14.7124939 C-18.71750132 6.0633721 -10.77955291 0.05148082 0 0 Z " fill="#FEFEFE" transform="translate(521.3806457519531,413.8460998535156)"/>
<path d="M0 0 C5.18762467 3.81730872 9.78117807 8.5049446 11.5078125 14.8359375 C12.32434538 22.42826079 10.70223444 27.72717308 6.2578125 34.0234375 C1.45510134 38.93530119 -2.11648398 41.05323196 -8.9296875 41.3359375 C-15.25405952 41.05870475 -19.92997969 39.61632458 -24.28125 34.89453125 C-29.73488826 27.87717207 -30.40947781 21.64400927 -29.4921875 12.8359375 C-27.38286509 7.11712802 -23.35682402 3.32578544 -18.4921875 -0.1640625 C-12.72862452 -2.08525016 -5.59332371 -2.61255559 0 0 Z " fill="#364EA4" transform="translate(678.4921875,291.1640625)"/>
<path d="M0 0 C5.98110873 2.68516057 9.78600066 7.10369287 13.08984375 12.66015625 C14.64318982 19.33954435 14.48623312 25.49466213 11.0546875 31.52734375 C7.87589049 35.84605922 3.68537731 39.30535447 -1.28515625 41.34765625 C-9.05629646 42.34996412 -14.41019864 40.78076917 -20.97265625 36.66015625 C-25.97868607 31.65412643 -27.55285692 26.91465136 -27.84765625 19.84765625 C-27.65123756 13.79375177 -26.34670948 9.84199794 -22.28515625 5.34765625 C-15.71655991 -0.74031109 -8.75794933 -2.50013254 0 0 Z " fill="#364EA4" transform="translate(386.28515625,687.65234375)"/>
</svg>
