<?xml version="1.0" encoding="UTF-8"?>
<svg id="Layer_1" data-name="Layer 1" xmlns="http://www.w3.org/2000/svg" viewBox="0 0 944.35 175.55">
  <defs>
    <style>
      .cls-1 {
        fill: #fff;
      }
    </style>
  </defs>
  <g>
    <path class="cls-1" d="M32.28,66.23c.52,8.76,3.49,17.11,8.54,24.16,5.07,7.01,11.94,12.28,19.87,15.26,4.46,1.71,10.68,2.85,15.49,2.85h40.63c4.46,0,7.2-3.5,7.87-6.73.75-3.58-.55-7.01-3.42-8.96l-27.89-18.77c-1.83-1.25-4.11-1.7-6.28-1.25-2.21.5-4.18,1.89-5.4,3.86-2.39,3.91-1.25,9.04,2.58,11.67l4.35,3-13.57.03c-6.39,0-12.43-2.5-17.47-7.25-5.86-5.49-8.84-13.28-8.84-23.17-.03-7.14,1.71-17.1,10.13-24.1,4.84-4.06,10.41-6.12,16.58-6.12h67.82c3.61,0,6.52-2.96,6.46-6.56l-.06-4.11c-.06-3.53-2.93-6.36-6.46-6.36h-68.09c-22.63.01-41.44,18.57-42.83,42.24-.1,1.84-.15,3.5-.15,5.24s.05,3.38.15,5.08Z"/>
    <path class="cls-1" d="M197.71,90.29c-.52-8.76-3.49-17.11-8.54-24.16-5.07-7.01-11.94-12.28-19.87-15.26-4.46-1.71-10.68-2.85-15.49-2.85h-40.63c-4.46,0-7.2,3.5-7.87,6.73-.75,3.58.55,7.01,3.42,8.96l27.89,18.77c1.83,1.25,4.11,1.7,6.28,1.25,2.21-.5,4.18-1.89,5.4-3.86,2.39-3.91,1.25-9.04-2.58-11.67l-4.35-3,13.57-.03c6.39,0,12.43,2.5,17.47,7.25,5.86,5.49,8.84,13.28,8.84,23.17.03,7.14-1.71,17.1-10.13,24.1-4.84,4.06-10.41,6.12-16.58,6.12h-67c-3.61,0-6.52,2.96-6.46,6.56l.06,4.11c.06,3.53,2.93,6.36,6.46,6.36h67.27c22.63-.01,41.44-18.57,42.83-42.24.1-1.84.15-3.5.15-5.24s-.05-3.38-.15-5.08Z"/>
  </g>
  <path class="cls-1" d="M237.44,130.92V27.52h19.94v103.41h-19.94ZM254.73,86.17v-16.1h51.26v16.1h-51.26ZM302.59,130.92V27.52h19.94v103.41h-19.94Z"/>
  <path class="cls-1" d="M372.85,132.7c-7.19,0-13.62-1.65-19.28-4.95-5.66-3.3-10.14-7.88-13.44-13.74-3.3-5.86-4.95-12.58-4.95-20.16s1.65-14.6,4.95-20.46c3.3-5.86,7.8-10.44,13.52-13.74,5.71-3.3,12.16-4.95,19.35-4.95s13.59,1.65,19.2,4.95c5.61,3.3,10.07,7.85,13.37,13.66,3.3,5.81,4.95,12.61,4.95,20.39s-1.65,14.45-4.95,20.31c-3.3,5.86-7.78,10.44-13.44,13.74-5.66,3.3-12.09,4.95-19.28,4.95ZM372.85,115.41c3.15,0,6.03-.81,8.64-2.44,2.61-1.62,4.73-4.06,6.35-7.31s2.44-7.24,2.44-11.97-.79-8.84-2.36-12.04c-1.58-3.2-3.65-5.61-6.2-7.24-2.56-1.62-5.42-2.44-8.57-2.44s-6.2.81-8.86,2.44-4.78,4.04-6.35,7.24c-1.58,3.2-2.36,7.22-2.36,12.04s.76,8.72,2.29,11.97c1.53,3.25,3.62,5.69,6.28,7.31,2.66,1.63,5.56,2.44,8.72,2.44Z"/>
  <path class="cls-1" d="M460.84,132.7c-7.19,0-13.62-1.65-19.28-4.95-5.66-3.3-10.14-7.88-13.44-13.74-3.3-5.86-4.95-12.58-4.95-20.16s1.65-14.6,4.95-20.46c3.3-5.86,7.8-10.44,13.52-13.74,5.71-3.3,12.16-4.95,19.35-4.95s13.59,1.65,19.2,4.95c5.61,3.3,10.07,7.85,13.37,13.66,3.3,5.81,4.95,12.61,4.95,20.39s-1.65,14.45-4.95,20.31c-3.3,5.86-7.78,10.44-13.44,13.74-5.66,3.3-12.09,4.95-19.28,4.95ZM460.84,115.41c3.15,0,6.03-.81,8.64-2.44,2.61-1.62,4.73-4.06,6.35-7.31s2.44-7.24,2.44-11.97-.79-8.84-2.36-12.04c-1.58-3.2-3.65-5.61-6.2-7.24-2.56-1.62-5.42-2.44-8.57-2.44s-6.2.81-8.86,2.44-4.78,4.04-6.35,7.24c-1.58,3.2-2.36,7.22-2.36,12.04s.76,8.72,2.29,11.97c1.53,3.25,3.62,5.69,6.28,7.31,2.66,1.63,5.56,2.44,8.72,2.44Z"/>
  <path class="cls-1" d="M511.16,130.92V24.56h19.94v106.36h-19.94ZM559.91,130.92l-31.76-40.77,28.51-33.68h23.64l-36.78,41.95-.15-15.81,41.36,48.3h-24.82Z"/>
  <path class="cls-1" d="M597.38,130.92V24.56h19.94v106.36h-19.94Z"/>
  <path class="cls-1" d="M724.59,130.92V56.47h17.58l1.33,12.26c2.36-4.33,5.64-7.76,9.82-10.27,4.19-2.51,9.18-3.77,14.99-3.77,6.2,0,11.42,1.31,15.66,3.91,4.23,2.61,7.48,6.38,9.75,11.3,2.26,4.93,3.4,10.93,3.4,18.02v42.99h-19.94v-41.21c0-5.81-1.28-10.29-3.84-13.44-2.56-3.15-6.45-4.73-11.67-4.73-3.25,0-6.18.79-8.79,2.36-2.61,1.58-4.65,3.82-6.13,6.72-1.48,2.91-2.22,6.48-2.22,10.71v39.59h-19.94Z"/>
  <path class="cls-1" d="M847.89,132.7c-7.49,0-14.11-1.62-19.87-4.87s-10.24-7.76-13.44-13.52c-3.2-5.76-4.8-12.38-4.8-19.87s1.6-14.62,4.8-20.53c3.2-5.91,7.66-10.58,13.37-14.03,5.71-3.45,12.36-5.17,19.94-5.17s13.84,1.62,19.35,4.87c5.51,3.25,9.8,7.61,12.85,13.07,3.05,5.47,4.58,11.74,4.58,18.83,0,.99-.03,2.09-.07,3.32-.05,1.23-.12,2.49-.22,3.77h-60.27v-12.26h40.48c-.3-4.63-1.99-8.37-5.1-11.23-3.1-2.86-6.92-4.28-11.45-4.28-3.45,0-6.57.81-9.38,2.44-2.81,1.63-5.05,3.99-6.72,7.09-1.68,3.1-2.51,7.02-2.51,11.74v4.28c0,4.04.76,7.56,2.29,10.56,1.53,3.01,3.67,5.34,6.43,7.02,2.76,1.68,5.96,2.51,9.6,2.51s6.77-.76,9.08-2.29c2.31-1.53,4.11-3.57,5.39-6.13h20.24c-1.28,4.63-3.57,8.84-6.87,12.63-3.3,3.79-7.29,6.75-11.96,8.86-4.68,2.12-9.92,3.18-15.73,3.18Z"/>
  <polygon class="cls-1" points="711.94 56.45 666.66 161.87 645.84 161.87 662.02 125.25 629.97 56.45 651.23 56.45 672.19 103.63 690.98 56.45 711.94 56.45"/>
</svg>