<?xml version="1.0" encoding="UTF-8"?>
<svg version="1.1" xmlns="http://www.w3.org/2000/svg" width="3624" height="732">
<path d="M0 0 C1.73826302 -0.00639748 1.73826302 -0.00639748 3.51164246 -0.01292419 C4.77449066 -0.01247101 6.03733887 -0.01201782 7.3384552 -0.0115509 C8.68928113 -0.01454513 10.04010621 -0.01794827 11.39093018 -0.02172852 C15.05701961 -0.03055494 18.72308568 -0.03290631 22.38918471 -0.0335443 C24.68742027 -0.03425661 26.98564995 -0.03639457 29.28388405 -0.03904152 C37.32519021 -0.04829684 45.36647982 -0.05237697 53.40779114 -0.05158997 C60.86192039 -0.05099205 68.3159766 -0.06148691 75.77008742 -0.07733363 C82.19674679 -0.09050093 88.6233826 -0.09576991 95.05005533 -0.09513456 C98.8757851 -0.09488186 102.70145021 -0.09760366 106.52716637 -0.10831261 C144.61755592 -0.20752759 144.61755592 -0.20752759 162.82991028 4.38371277 C163.70470032 4.59987244 164.57949036 4.8160321 165.48078918 5.03874207 C189.52011507 11.18777627 210.30006772 22.96082919 228.20491028 40.13371277 C229.6203009 41.43695496 229.6203009 41.43695496 231.06428528 42.76652527 C260.25631575 70.17663646 273.80470948 109.82464318 275.31867981 149.08390808 C276.51553554 195.25694624 265.33848932 237.68004565 233.25569153 271.98527527 C232.57893372 272.69425964 231.9021759 273.40324402 231.20491028 274.13371277 C230.62096497 274.78082214 230.03701965 275.42793152 229.43537903 276.09465027 C206.56069992 300.51424234 171.91617622 314.72228994 138.80910492 316.24381876 C132.45474725 316.41833378 126.10006012 316.38486996 119.74397278 316.36076355 C117.63326523 316.36019815 115.52255729 316.36051851 113.41184998 316.36164856 C107.73112523 316.36221803 102.05048642 316.35053002 96.36978149 316.33650064 C90.41476385 316.32392505 84.45974384 316.32281743 78.50471497 316.32044983 C67.25003458 316.31425501 55.99539345 316.29787145 44.74073029 316.27775085 C31.9183596 316.25532937 19.09598696 316.24438276 6.27360153 316.23435998 C-20.08265057 316.2135033 -46.43886794 316.1783665 -72.79508972 316.13371277 C-73.10051697 317.07827332 -73.40594421 318.02283386 -73.72062683 318.99601746 C-78.63376277 333.34358007 -92.68560224 345.69118568 -105.84733582 352.38517761 C-124.28504612 361.28656497 -145.05409144 363.25781171 -164.68034363 356.90422058 C-184.83011901 349.56264922 -200.03343604 335.1101658 -209.25602722 315.80168152 C-217.58906002 295.94199168 -218.47868358 274.08130741 -210.54508972 253.94621277 C-201.64415681 234.27462434 -188.59405488 219.62452894 -168.49040222 211.12590027 C-148.08489786 203.61430881 -126.8827494 204.37153499 -107.08415222 213.39933777 C-101.89335109 216.13652981 -97.34506737 219.44591241 -92.79508972 223.13371277 C-91.73548035 223.94775574 -91.73548035 223.94775574 -90.65446472 224.77824402 C-83.080112 230.90631285 -76.71604376 238.81559458 -73.79508972 248.13371277 C-46.02155251 248.09648866 -18.24814392 248.03654336 9.52528477 247.94981003 C22.42199464 247.91006039 35.31864386 247.87764717 48.21540833 247.86271667 C59.46084105 247.84967907 70.70614008 247.8226605 81.9514975 247.7790997 C87.90164968 247.75653248 93.85163724 247.74079925 99.80183601 247.74182892 C105.41203802 247.74257832 111.02187677 247.72451508 116.63198471 247.69254494 C118.68167779 247.68408528 120.7314118 247.68226899 122.78111458 247.68791008 C137.47287206 247.72293179 150.96759568 246.52453208 164.26741028 239.63371277 C164.92096497 239.29895935 165.57451965 238.96420593 166.24787903 238.61930847 C184.67506067 228.68312667 196.57438744 211.87585502 203.52522278 192.44230652 C211.40544464 165.38687814 210.1771836 133.33792895 196.64631653 108.24308777 C185.84717851 90.38585262 169.28711395 76.93204999 149.14241028 71.19621277 C147.50716039 70.79601385 145.85972871 70.44319195 144.20491028 70.13371277 C143.23553528 69.94808777 142.26616028 69.76246277 141.26741028 69.57121277 C135.31538736 68.75316223 129.26030328 69.03035928 123.26741028 69.07121277 C122.01121887 69.07572449 120.75502747 69.08023621 119.46076965 69.08488464 C116.37543365 69.09661596 113.29019711 69.11303177 110.20491028 69.13371277 C110.81435486 69.81119568 110.81435486 69.81119568 111.43611145 70.50236511 C118.30437291 78.29252008 121.58913035 86.22774234 121.41584778 96.67668152 C120.64998668 105.59754509 116.88679666 113.85366494 110.24787903 119.92277527 C101.38865558 126.80010743 93.30636264 128.90571919 82.20491028 128.13371277 C67.83047997 125.99450535 53.35112395 112.58388981 41.70903015 104.61784363 C30.22647673 96.76261063 18.67823277 89.00457861 7.13639832 81.23683167 C1.91357762 77.72155689 -3.3061081 74.20175353 -8.51951599 70.67253113 C-9.97488946 69.68835936 -11.43144305 68.70592904 -12.88951111 67.72575378 C-14.70817276 66.50262754 -16.5218646 65.27250526 -18.33415222 64.03996277 C-19.30562195 63.38318542 -20.27709167 62.72640808 -21.27799988 62.04972839 C-27.85655269 57.04211613 -32.4369247 50.33120882 -33.79508972 42.13371277 C-34.8783152 29.94742609 -33.61191791 20.30296293 -25.67008972 10.75871277 C-18.42059746 3.23407476 -10.35036148 0.01726926 0 0 Z M-156.17008972 270.50871277 C-159.79811045 275.1846087 -161.02160519 279.09292735 -160.73258972 285.00871277 C-159.85009351 291.82240447 -157.05491402 296.37104982 -151.67008972 300.57121277 C-146.16443048 303.56341888 -140.70534842 304.24586968 -134.63883972 302.52043152 C-129.11180923 300.10767013 -125.84048533 296.26557319 -122.79508972 291.13371277 C-120.76568072 285.04548577 -121.18307537 279.74759733 -123.79508972 273.88371277 C-127.02951349 267.94161425 -131.5046995 265.23050951 -137.79508972 263.13371277 C-145.48643577 262.37965923 -151.0281866 264.86638111 -156.17008972 270.50871277 Z " fill="#022F51" transform="translate(399.7950897216797,272.8662872314453)"/>
<path d="M0 0 C16.42429517 13.15794379 26.92527976 30.38586428 30.125 51.25 C30.42833605 54.79710684 30.50635333 58.31586579 30.5 61.875 C30.49838867 62.82922852 30.49677734 63.78345703 30.49511719 64.76660156 C30.34746522 73.40279403 28.82414365 81.07759284 26.125 89.25 C25.83625 90.1678125 25.5475 91.085625 25.25 92.03125 C19.07506547 109.4533867 4.8927727 123.98079811 -11.40429688 132.21606445 C-29.14217506 140.66515868 -49.31049081 142.08836785 -68.19921875 136.5703125 C-86.78436874 129.89466883 -103.04698114 117.25223453 -111.875 99.25 C-111.875 98.59 -111.875 97.93 -111.875 97.25 C-139.12698933 97.31062475 -166.3788854 97.38818836 -193.63076878 97.48571491 C-206.2853315 97.53061038 -218.93986647 97.57003943 -231.59448242 97.59643555 C-242.62894742 97.61946626 -253.66332413 97.65292083 -264.69771904 97.69870156 C-270.53606232 97.72256538 -276.37431854 97.74133893 -282.21270943 97.74761391 C-287.71780143 97.75369577 -293.22267087 97.77380693 -298.72768021 97.80427551 C-300.73867302 97.81300626 -302.74969497 97.81678872 -304.76070595 97.81500816 C-326.68499974 97.80173566 -345.37944088 100.88994018 -362.875 115.25 C-363.7515625 115.96285156 -364.628125 116.67570313 -365.53125 117.41015625 C-382.01123581 131.48267425 -390.22356191 152.1107073 -392.875 173.25 C-394.68820201 199.83436159 -391.6605493 226.55639535 -374.875 248.25 C-362.58427818 262.1693845 -345.81342525 274.17427461 -326.875 276.25 C-316.88118351 276.70247861 -306.87230176 276.50223663 -296.875 276.25 C-297.28637207 275.64164307 -297.69774414 275.03328613 -298.12158203 274.40649414 C-298.66153809 273.60332764 -299.20149414 272.80016113 -299.7578125 271.97265625 C-300.29293457 271.17867432 -300.82805664 270.38469238 -301.37939453 269.56665039 C-307.02925644 260.81517476 -307.37841091 250.36992715 -305.25390625 240.30859375 C-302.15662635 231.51231884 -296.17889837 225.17138433 -288.0625 220.75 C-277.90341935 216.17395238 -269.30454245 216.74289717 -258.875 220.25 C-255.30272418 222.01788401 -252.06437987 224.1414149 -248.78125 226.39453125 C-247.86903687 227.00076828 -246.95682373 227.60700531 -246.01696777 228.23161316 C-243.12527279 230.15932241 -240.25031046 232.11046104 -237.375 234.0625 C-235.48018953 235.32900559 -233.58436169 236.59399049 -231.6875 237.85742188 C-221.68936063 244.53827652 -211.80355824 251.37093003 -201.97055054 258.29193115 C-193.76777155 264.05467877 -185.42220123 269.5901555 -177.04638672 275.09692383 C-175.13569615 276.35458451 -173.22790249 277.61654951 -171.3203125 278.87890625 C-170.22219238 279.60150635 -169.12407227 280.32410645 -167.99267578 281.06860352 C-158.69941284 287.57097661 -153.79016538 293.87776391 -151.31640625 305.1015625 C-149.80593928 315.87533577 -152.51728475 325.6588824 -158.625 334.5625 C-163.33643966 340.43696506 -169.47506069 343.91047421 -176.875 345.25 C-181.70836341 345.55709497 -186.5401624 345.5444546 -191.38134766 345.54052734 C-192.85568073 345.54651857 -194.33001067 345.55332548 -195.80433655 345.56088257 C-199.79902319 345.57850632 -203.79362405 345.5832369 -207.78834581 345.58451414 C-210.29399907 345.58594031 -212.79963087 345.59021908 -215.30527878 345.59550858 C-224.07625447 345.61400894 -232.84716951 345.62218068 -241.61816406 345.62060547 C-249.74264069 345.61940959 -257.86684928 345.64040248 -265.99125826 345.6720928 C-273.00144857 345.69844381 -280.0115525 345.70896471 -287.02179182 345.70769465 C-291.19250687 345.70718976 -295.36298452 345.71260376 -299.53364944 345.73405075 C-320.58455397 345.83484716 -341.20634071 345.52668669 -361.1875 338 C-361.99960937 337.70407959 -362.81171875 337.40815918 -363.6484375 337.10327148 C-380.42935393 330.8153518 -395.17759528 321.81474299 -408.875 310.25 C-410.12603516 309.20199219 -410.12603516 309.20199219 -411.40234375 308.1328125 C-417.65630728 302.71720771 -422.84876474 296.80873531 -427.875 290.25 C-428.55433594 289.37472656 -429.23367188 288.49945313 -429.93359375 287.59765625 C-440.9111012 273.02517559 -448.69134591 256.86102065 -454.125 239.5 C-454.47618896 238.41404541 -454.47618896 238.41404541 -454.83447266 237.30615234 C-459.41028838 221.91894694 -460.37489571 205.94223505 -460.26611328 189.98608398 C-460.24998498 187.18489082 -460.26610246 184.38513535 -460.28515625 181.58398438 C-460.33272603 139.98591736 -445.75669084 102.17510453 -416.875 72.25 C-416.08609375 71.39792969 -415.2971875 70.54585938 -414.484375 69.66796875 C-399.62533108 54.04629178 -380.43533816 43.16238959 -360.125 36.25 C-359.34753418 35.98348633 -358.57006836 35.71697266 -357.76904297 35.44238281 C-342.2350196 30.51206047 -326.91046961 29.81990228 -310.74975586 29.90942383 C-308.57978833 29.91027203 -306.40981994 29.9097912 -304.23985291 29.90809631 C-298.40212558 29.90724247 -292.56458662 29.92476845 -286.72690272 29.94581819 C-280.60640233 29.96468771 -274.4858967 29.96634347 -268.3653717 29.96989441 C-256.7990417 29.97918487 -245.23279769 30.00375773 -233.6665054 30.03394288 C-220.48862311 30.06758069 -207.31073651 30.0839964 -194.13282192 30.09902918 C-167.04683377 30.1303102 -139.96092173 30.18301185 -112.875 30.25 C-112.57190918 29.3130127 -112.26881836 28.37602539 -111.95654297 27.41064453 C-106.21692597 10.6374884 -91.04954135 -0.46530433 -75.984375 -8.2421875 C-51.50822335 -19.54401709 -21.43225618 -16.25796538 0 0 Z M-57.1875 47.5625 C-61.74598612 52.12098612 -63.42005775 56.62529191 -63.94140625 62.9453125 C-63.76971075 68.90415643 -61.04508149 74.07991851 -56.875 78.25 C-51.80100042 82.08138744 -47.86812344 82.89355302 -41.5234375 82.6328125 C-36.17892554 81.86030192 -32.63692844 79.32207625 -29.0625 75.3125 C-25.07611394 69.73155951 -23.97823864 65.03814297 -24.875 58.25 C-26.7566514 52.0529445 -30.51705231 47.78322364 -35.875 44.25 C-43.65760341 40.89279853 -50.61220066 42.47935088 -57.1875 47.5625 Z " fill="#344CA3" transform="translate(580.875,112.75)"/>
<path d="M0 0 C0.83799637 -0.0127597 1.67599274 -0.02551941 2.53938293 -0.03866577 C3.88633492 -0.04200424 3.88633492 -0.04200424 5.26049805 -0.04541016 C6.19266647 -0.05206696 7.1248349 -0.05872375 8.08525085 -0.06558228 C10.05632558 -0.07569907 12.02743449 -0.0803996 13.99853516 -0.08007812 C17.0011504 -0.08444204 20.00228429 -0.12074618 23.00463867 -0.15869141 C24.92325346 -0.16456176 26.8418752 -0.16852969 28.76049805 -0.17041016 C29.65239334 -0.18478119 30.54428864 -0.19915222 31.46321106 -0.21395874 C37.40032596 -0.17085002 40.83688696 0.85125159 45.7097168 4.29052734 C48.22924805 7.03271484 48.22924805 7.03271484 50.5222168 10.16552734 C51.1548645 11.01981323 51.1548645 11.01981323 51.80029297 11.89135742 C53.11848687 13.68066683 54.41614408 15.48335907 55.7097168 17.29052734 C56.11061523 17.84562988 56.51151367 18.40073242 56.92456055 18.97265625 C58.9712473 21.80698189 61.00220149 24.65198276 63.0222168 27.50537109 C65.99584879 31.70285238 69.00780345 35.872278 72.0222168 40.04052734 C72.56765137 40.79519287 73.11308594 41.5498584 73.67504883 42.32739258 C75.35293871 44.64867831 77.03126062 46.96965106 78.7097168 49.29052734 C85.13077088 58.16920549 91.54825281 67.04976076 97.90844727 75.97216797 C102.91957549 82.9961763 107.9804115 89.98431242 113.03637695 96.97607422 C116.30201213 101.49288505 119.56441297 106.01203234 122.82739258 110.53076172 C125.57222824 114.33168509 128.31789807 118.13200066 131.06518555 121.93115234 C136.3665391 129.26386567 141.65627117 136.60414578 146.90844727 143.97216797 C151.91957549 150.9961763 156.9804115 157.98431242 162.03637695 164.97607422 C165.30201213 169.49288505 168.56441297 174.01203234 171.82739258 178.53076172 C174.57222824 182.33168509 177.31789807 186.13200066 180.06518555 189.93115234 C189.31159358 202.72069002 189.31159358 202.72069002 193.76708984 208.96826172 C194.5904373 210.12264578 195.41478528 211.27631702 196.24023438 212.42919922 C198.16499978 215.11776042 200.07468639 217.8148944 201.96362305 220.52880859 C202.66358398 221.52267578 203.36354492 222.51654297 204.0847168 223.54052734 C204.99350586 224.84763672 204.99350586 224.84763672 205.9206543 226.18115234 C207.77289596 228.36501806 209.02629047 229.34626003 211.7097168 230.29052734 C214.89323638 230.09561798 216.95891856 229.86009842 219.5222168 227.91552734 C222.38290012 224.00090807 221.85103068 219.58802754 221.84101868 214.97322083 C221.84313439 214.11467253 221.8452501 213.25612423 221.84742993 212.37155932 C221.85343975 209.48361475 221.85242907 206.59571375 221.8515625 203.70776367 C221.85459338 201.64150925 221.85811464 199.5752555 221.86209106 197.50900269 C221.86998649 193.05317421 221.87512743 188.59735377 221.87838173 184.14151955 C221.88428677 177.09462147 221.90082276 170.04777404 221.91972351 163.00090027 C221.92606112 160.58920387 221.93238674 158.17750743 221.93870068 155.76581097 C221.94186649 154.55790602 221.9450323 153.35000108 221.94829404 152.10549295 C221.99038274 135.69639559 222.0233434 119.28732156 222.03564453 102.87817383 C222.04402376 91.81444595 222.06651047 80.75084315 222.1050002 69.68717784 C222.12476725 63.83173864 222.13716326 57.97648644 222.13216591 52.12101173 C222.12752076 46.61093698 222.14131804 41.10121656 222.16917801 35.59121323 C222.17609224 33.57082342 222.17621387 31.550397 222.16897774 29.53000832 C222.16008329 26.76716908 222.17579286 24.00549675 222.19746399 21.24275208 C222.18480018 20.04929058 222.18480018 20.04929058 222.17188054 18.83171874 C222.25287733 13.2299037 223.64138244 8.99992019 226.7097168 4.29052734 C230.16808812 1.04175429 233.38467444 0.1733303 238.05419922 0.11352539 C238.92908493 0.10069016 239.80397064 0.08785492 240.70536804 0.07463074 C241.64910782 0.0672438 242.5928476 0.05985687 243.56518555 0.05224609 C244.54078934 0.04417435 245.51639313 0.0361026 246.52156067 0.02778625 C248.58857449 0.01395204 250.6556111 0.00322692 252.72265625 -0.00463867 C255.86787887 -0.02181246 259.01203953 -0.06570036 262.15698242 -0.10986328 C264.16804242 -0.11999409 266.17911134 -0.12850897 268.19018555 -0.13525391 C269.12380417 -0.15276199 270.05742279 -0.17027008 271.01933289 -0.18830872 C277.0406008 -0.16853024 281.71608372 0.777151 286.7097168 4.29052734 C290.30004809 8.92321289 290.83401989 13.21395717 290.84114456 18.94813251 C290.84498571 20.10826715 290.84882685 21.26840178 290.8527844 22.46369201 C290.85191791 23.73906064 290.85105143 25.01442927 290.85015869 26.32844543 C290.85274258 27.69634338 290.85575581 29.06424057 290.85916209 30.43213671 C290.86723247 34.19491132 290.86902168 37.95766685 290.86975956 41.72044909 C290.87161003 45.77713382 290.87915729 49.83380866 290.88589478 53.89048767 C290.89947847 62.76233733 290.90550275 71.63418248 290.90990543 80.50604081 C290.91266756 86.04465916 290.91690484 91.58327576 290.92140961 97.12189293 C290.93360188 112.45414146 290.94390156 127.78638858 290.9472847 143.11864185 C290.94750426 144.09998737 290.94772383 145.08133289 290.94795005 146.09241615 C290.94816833 147.07611827 290.94838661 148.05982038 290.9486115 149.07333165 C290.94905497 151.06671004 290.94950153 153.06008842 290.94995117 155.0534668 C290.9501726 156.04225272 290.95039403 157.03103865 290.95062217 158.04978778 C290.95457106 174.07534461 290.97202804 190.10085599 290.99531069 206.12639526 C291.01901697 222.57614803 291.0314862 239.02587798 291.03265262 255.47564811 C291.03356974 264.71300112 291.03933145 273.9502949 291.05747223 283.18763161 C291.07286338 291.05258991 291.07799948 298.91747068 291.06973413 306.78244118 C291.06582424 310.79544765 291.06677369 314.80829794 291.08079147 318.82128525 C291.09351 322.49590648 291.09235107 326.17025384 291.08020076 329.84487458 C291.07731232 331.80197144 291.08919502 333.75907293 291.10162282 335.71613246 C291.05932926 343.21207528 290.94495144 349.05529271 285.3972168 354.60302734 C279.74362757 358.15295546 274.54087166 358.59890115 268.05737305 358.59130859 C267.23901474 358.59559372 266.42065643 358.59987885 265.57749939 358.60429382 C263.85375897 358.61001405 262.12999442 358.61055447 260.40625 358.60620117 C257.78367548 358.60304115 255.16223028 358.62652862 252.53979492 358.65185547 C250.85815571 358.65412886 249.17651349 358.65483177 247.49487305 358.65380859 C246.71862076 358.66301834 245.94236847 358.67222809 245.14259338 358.68171692 C239.03137894 358.63033914 234.27299519 357.45427548 229.47924805 353.40771484 C223.17501075 346.18489606 217.75221647 338.44673235 212.30102539 330.57128906 C209.66945433 326.79955895 206.97147287 323.07647499 204.2722168 319.35302734 C203.73242188 318.60730469 203.19262695 317.86158203 202.63647461 317.09326172 C201.54156177 315.58083601 200.4463466 314.06862912 199.35083008 312.55664062 C196.63323506 308.80407935 193.92177207 305.04709315 191.2097168 301.29052734 C190.12641318 299.79050588 189.04307984 298.29050589 187.9597168 296.79052734 C90.4597168 161.79052734 90.4597168 161.79052734 88.83203125 159.53637695 C87.75819732 158.04981588 86.68382358 156.56364459 85.60888672 155.07788086 C82.75046063 151.12544096 79.90414051 147.16491046 77.07299805 143.19287109 C76.47874023 142.36207031 75.88448242 141.53126953 75.2722168 140.67529297 C74.12685537 139.07357659 72.98479257 137.46949501 71.84643555 135.86279297 C71.33338867 135.14671875 70.8203418 134.43064453 70.29174805 133.69287109 C69.84033447 133.05857178 69.3889209 132.42427246 68.92382812 131.77075195 C67.75876105 130.1450736 67.75876105 130.1450736 65.7097168 129.29052734 C60.65387709 128.78051613 60.65387709 128.78051613 56.3347168 131.10302734 C53.18905053 135.33757809 53.56993544 139.56353434 53.58514404 144.60783386 C53.58373389 145.46638216 53.58232375 146.32493045 53.58087087 147.20949537 C53.57720974 150.09744355 53.58055792 152.98534288 53.58374023 155.87329102 C53.58234582 157.93954507 53.58044674 160.00579883 53.57807922 162.072052 C53.57357773 166.52788205 53.57172604 170.98370288 53.57161713 175.43953514 C53.57047809 182.48643205 53.55764902 189.5332764 53.54205322 196.58015442 C53.53948037 197.76886759 53.53690752 198.95758075 53.5342567 200.18231553 C53.52898996 202.61339764 53.52370448 205.04447971 53.51840067 207.47556174 C53.48327665 223.88467617 53.45673865 240.29372573 53.45922852 256.70288086 C53.46081706 267.76662486 53.44478143 278.83019015 53.40852189 289.89387685 C53.39005787 295.74935739 53.38072298 301.60453956 53.39299774 307.46004295 C53.40443613 312.97017746 53.39272617 318.47977797 53.36336327 323.98984146 C53.35672384 326.01023328 53.3585875 328.03067399 53.36966133 330.05104637 C53.3835471 332.81410164 53.36662174 335.57535762 53.34222412 338.33830261 C53.3535795 339.13394361 53.36493488 339.92958461 53.37663436 340.74933594 C53.27705512 346.56688758 51.58906169 350.88859533 47.7097168 355.29052734 C42.29121257 358.63632743 36.45100194 358.73437657 30.2409668 358.68896484 C28.92134949 358.69327011 28.92134949 358.69327011 27.57507324 358.69766235 C25.72623038 358.69969202 23.8773655 358.69423948 22.02856445 358.68164062 C19.21736096 358.66557104 16.40759494 358.68152665 13.59643555 358.70068359 C11.79044283 358.69870097 9.98445099 358.69485689 8.1784668 358.68896484 C7.34802856 358.69503754 6.51759033 358.70111023 5.6619873 358.70736694 C-0.86800293 358.62963685 -6.80369109 357.71168282 -11.6652832 352.97802734 C-14.52462767 348.2491115 -15.53997792 343.91363435 -15.5447588 338.42085457 C-15.55059099 337.26432133 -15.55642318 336.10778809 -15.56243211 334.91620839 C-15.55865279 333.65512946 -15.55487346 332.39405052 -15.55097961 331.09475708 C-15.55400143 329.73409404 -15.55789106 328.37343269 -15.56257218 327.01277435 C-15.57285714 323.27922666 -15.5706691 319.54577496 -15.56639159 315.81221938 C-15.56392526 311.78349378 -15.57293738 307.75479134 -15.58042908 303.72607422 C-15.5931808 295.83539667 -15.59496917 287.94475315 -15.59262881 280.05406703 C-15.59084599 273.64027743 -15.59259454 267.22649817 -15.59685326 260.81270981 C-15.59744845 259.89996332 -15.59804363 258.98721684 -15.59865686 258.04681136 C-15.59986861 256.19257642 -15.60108274 254.33834147 -15.60229924 252.48410653 C-15.61317665 235.09345123 -15.61101136 217.70281532 -15.60491439 200.31215893 C-15.59974533 184.40379884 -15.61100002 168.49549999 -15.63001261 152.58715202 C-15.64938622 136.25145837 -15.65764783 119.91579371 -15.65388936 103.5800885 C-15.65197655 94.40924876 -15.65447258 85.23846114 -15.6686039 76.06763077 C-15.6805126 68.26020219 -15.68192834 60.4528578 -15.66981373 52.64542808 C-15.66392139 48.66266649 -15.66283538 44.68005895 -15.67481613 40.69730759 C-15.68566252 37.04922927 -15.68258656 33.40143385 -15.66855445 29.75336884 C-15.66465135 27.81301794 -15.67546482 25.87265453 -15.68685132 23.93233311 C-15.63995897 16.37293488 -15.31413926 9.9971896 -10.3527832 3.91552734 C-6.97444714 1.25380802 -4.31689749 0.04484334 0 0 Z " fill="#022F51" transform="translate(2893.290283203125,186.70947265625)"/>
<path d="M0 0 C1.48560425 0.00273422 1.48560425 0.00273422 3.0012207 0.00552368 C17.44821679 0.05028056 31.61508153 0.38933578 45.8125 3.3125 C47.13846191 3.57788574 47.13846191 3.57788574 48.49121094 3.84863281 C90.70561287 12.52528838 126.17531465 33.47567031 150.8671875 69.29296875 C183.57728238 120.06586702 187.40279951 187.2636143 175.21875 245.1171875 C166.137392 286.0715895 144.49134856 323.32249339 108.9140625 346.73828125 C84.19915913 362.43496018 56.70706923 370.00018062 27.8125 373.3125 C26.67425781 373.44527344 25.53601562 373.57804687 24.36328125 373.71484375 C-25.75021979 378.30491348 -80.79676197 370.22882483 -120.62109375 337.5 C-158.84912543 304.91598518 -174.93295182 260.35585482 -179.5859375 211.265625 C-183.80630067 156.28683987 -175.07912962 97.45167159 -138.6796875 54.125 C-102.92052118 13.76982798 -52.52565105 -0.20099663 0 0 Z M-33.1875 54.3125 C-33.91243652 54.51117676 -34.63737305 54.70985352 -35.38427734 54.91455078 C-58.53501244 61.43347745 -78.13636649 74.85560701 -91.1875 95.3125 C-91.76242187 96.18132812 -92.33734375 97.05015625 -92.9296875 97.9453125 C-117.34457709 136.90062523 -117.90725534 193.85180225 -108.08984375 237.390625 C-101.40515176 265.0309468 -88.18605528 290.9388084 -63.875 306.9375 C-55.47919712 312.04697893 -47.16948857 316.23178383 -37.75 319.0625 C-36.76749268 319.36051514 -36.76749268 319.36051514 -35.76513672 319.66455078 C-23.97207784 323.00577431 -12.11698923 323.68850189 0.0625 323.625 C0.78894714 323.62317719 1.51539429 323.62135437 2.26385498 323.61947632 C13.04781281 323.57392618 23.34784813 323.15290551 33.8125 320.3125 C35.04742188 319.98378906 36.28234375 319.65507812 37.5546875 319.31640625 C62.61684404 311.78733843 82.03981797 296.24596803 94.82861328 273.47314453 C103.36845448 257.59322136 107.95402829 241.0457439 110.8125 223.3125 C110.99039063 222.230896 110.99039063 222.230896 111.171875 221.12744141 C117.73501215 178.96514516 114.26372153 126.0370737 88.49414062 90.49414062 C75.23137541 73.25063202 58.61815603 61.50881134 37.8125 55.3125 C37.11721191 55.10222168 36.42192383 54.89194336 35.70556641 54.67529297 C14.87229991 48.71281493 -12.27262751 48.50889664 -33.1875 54.3125 Z " fill="#022F51" transform="translate(1366.1875,178.6875)"/>
<path d="M0 0 C0.94511444 -0.00701431 1.89022888 -0.01402863 2.86398315 -0.02125549 C5.89504821 -0.03865682 8.92591808 -0.04510699 11.95703125 -0.046875 C13.50812088 -0.04788712 13.50812088 -0.04788712 15.09054565 -0.04891968 C29.8624748 -0.03357542 44.2513076 0.20952628 58.76953125 3.203125 C59.6414209 3.37473145 60.51331055 3.54633789 61.41162109 3.72314453 C91.96483671 9.87557359 119.05444866 22.69856405 141.76953125 44.203125 C142.65382813 45.02296875 143.538125 45.8428125 144.44921875 46.6875 C168.5707718 69.78405787 181.88375429 101.40226357 188.51953125 133.640625 C188.81754639 135.06652954 188.81754639 135.06652954 189.12158203 136.52124023 C192.35798646 153.15114523 193.15302913 169.9263509 193.08203125 186.828125 C193.07929703 188.19294006 193.07929703 188.19294006 193.07650757 189.58532715 C192.95585768 225.54763969 187.30350699 261.36370822 169.76953125 293.203125 C169.20492188 294.25757813 168.6403125 295.31203125 168.05859375 296.3984375 C149.07598951 330.53147705 116.25269339 355.00464797 78.9765625 365.82421875 C24.78936667 380.62917764 -39.83826725 378.97902977 -89.5859375 350.7890625 C-98.56178858 345.48654592 -106.59108606 339.27784743 -114.23046875 332.203125 C-114.77300293 331.70441895 -115.31553711 331.20571289 -115.87451172 330.69189453 C-141.73800985 306.64923523 -156.78098426 273.89543674 -163.48046875 239.578125 C-163.63161133 238.8049292 -163.78275391 238.0317334 -163.93847656 237.23510742 C-166.93483576 220.72638575 -167.60424189 204.38310013 -167.54296875 187.640625 C-167.5408136 186.58108612 -167.53865845 185.52154724 -167.53643799 184.42990112 C-167.48559992 168.85537834 -167.24141396 153.53649198 -164.23046875 138.203125 C-163.93245361 136.68235352 -163.93245361 136.68235352 -163.62841797 135.13085938 C-156.5317037 100.36493331 -142.57477215 69.40474407 -117.23046875 44.203125 C-116.43382812 43.40648437 -115.6371875 42.60984375 -114.81640625 41.7890625 C-84.70299578 13.28707199 -40.82071567 0.20353703 0 0 Z M-21.23046875 54.203125 C-22.46410156 54.53183594 -23.69773437 54.86054688 -24.96875 55.19921875 C-51.45121161 63.14670723 -71.00046981 79.98549981 -84.23046875 104.203125 C-96.80596769 129.82867002 -100.45936375 157.57210953 -100.48046875 185.828125 C-100.48114349 186.64304413 -100.48181824 187.45796326 -100.48251343 188.2975769 C-100.43634907 223.5727547 -94.98493741 263.03358623 -70.23046875 290.203125 C-69.34617187 291.18023437 -68.461875 292.15734375 -67.55078125 293.1640625 C-50.36359289 311.54157979 -25.8151387 322.22456461 -0.67626953 323.36425781 C34.11720629 323.75382153 64.91963397 320.09220024 91.39453125 295.015625 C115.44800223 269.78987294 124.70261467 233.4448338 125.0078125 199.33203125 C125.01760635 198.42004974 125.02740021 197.50806824 125.03749084 196.56845093 C125.27114905 169.16951855 124.17619054 143.24911939 114.76953125 117.203125 C114.53508301 116.55069824 114.30063477 115.89827148 114.05908203 115.22607422 C108.93088462 101.36148405 101.0115844 89.76941447 90.76953125 79.203125 C90.23199219 78.59210938 89.69445313 77.98109375 89.140625 77.3515625 C74.36712551 61.13403675 50.85242143 53.8441782 29.76953125 51.203125 C24.31413603 50.96202678 18.85472584 50.95742465 13.39453125 50.953125 C12.6294223 50.95245026 11.86431335 50.95177551 11.07601929 50.95108032 C0.02983009 50.96659239 -10.51321453 51.26509859 -21.23046875 54.203125 Z " fill="#022F51" transform="translate(1741.23046875,178.796875)"/>
<path d="M0 0 C0.89813416 -0.01283524 1.79626831 -0.02567047 2.72161865 -0.03889465 C4.17474457 -0.04997505 4.17474457 -0.04997505 5.65722656 -0.0612793 C6.65739807 -0.06935104 7.65756958 -0.07742279 8.68804932 -0.08573914 C10.8063382 -0.0995729 12.9246493 -0.11029822 15.04296875 -0.11816406 C18.2715925 -0.1353582 21.49918721 -0.17924912 24.72753906 -0.22338867 C26.78742738 -0.23351759 28.84732439 -0.24203307 30.90722656 -0.2487793 C31.86788025 -0.26628738 32.82853394 -0.28379547 33.81829834 -0.30183411 C39.93843664 -0.28217446 43.55199433 0.57306029 48.54785156 4.17700195 C51.97852935 8.751239 52.67037386 12.82638838 52.68588257 18.4390564 C52.69133591 19.50448166 52.69678925 20.56990692 52.70240784 21.6676178 C52.70345016 22.83135422 52.70449249 23.99509064 52.70556641 25.1940918 C52.71064713 26.42374161 52.71572784 27.65339142 52.72096252 28.92030334 C52.73166758 31.59235439 52.740668 34.26435361 52.74708176 36.93641281 C52.75778101 41.16424437 52.77803063 45.39199646 52.80020142 49.61978149 C52.8620621 61.64109661 52.9161333 73.66240655 52.94921875 85.68383789 C52.96757739 92.3252916 52.99652678 98.96661161 53.03722346 105.60796702 C53.05826873 109.12034547 53.07374722 112.63255564 53.07603073 116.14500046 C53.07858159 120.06384806 53.10406483 123.98236569 53.13134766 127.90112305 C53.12834152 129.060811 53.12533539 130.22049896 53.12223816 131.41532898 C53.19080994 138.03616334 53.68474872 142.71741935 58.04785156 147.98950195 C61.31620894 150.57695154 64.70099219 150.30685736 68.68344116 150.31744385 C69.96770493 150.32315399 71.25196869 150.32886414 72.57514954 150.33474731 C74.00143423 150.33599266 75.42771903 150.33711776 76.85400391 150.33813477 C78.35370506 150.34276326 79.85340503 150.34778797 81.35310364 150.35317993 C85.42957754 150.36630195 89.50603497 150.37274837 93.58252668 150.37719059 C96.12889929 150.38012133 98.67526739 150.38422611 101.22163773 150.38869476 C109.18742838 150.40236849 117.15320875 150.41203605 125.11901033 150.41589665 C134.31683737 150.42037879 143.51451591 150.43793439 152.7122978 150.46689725 C159.82066096 150.48850452 166.9289823 150.49860041 174.03737795 150.49993777 C178.28361698 150.50098639 182.52971639 150.50690623 186.77592087 150.52475739 C190.76994573 150.54122187 194.76372577 150.54340157 198.75777245 150.53461838 C200.2231086 150.53384716 201.68845783 150.53820195 203.15376091 150.54807663 C205.15523225 150.56077289 207.15680172 150.55313607 209.15829468 150.54449463 C210.83794847 150.54669447 210.83794847 150.54669447 212.55153465 150.54893875 C215.96435207 150.12530119 217.80758719 149.22640389 220.54785156 147.17700195 C222.74061074 143.88786319 222.8006078 142.91751884 222.81286621 139.1000824 C222.82113937 138.05022659 222.82941254 137.00037079 222.8379364 135.91870117 C222.83646355 134.19115601 222.83646355 134.19115601 222.83496094 132.42871094 C222.84179398 131.21538589 222.84862701 130.00206085 222.85566711 128.75196838 C222.86927764 126.11148479 222.87930683 123.47126684 222.88337708 120.83077812 C222.8900968 116.64810024 222.9118622 112.46558342 222.93591309 108.28297424 C222.98490132 99.3935213 223.01715928 90.504034 223.04785156 81.61450195 C223.08097108 72.04095767 223.11710556 62.46747634 223.17198229 52.89402825 C223.19520536 48.74461528 223.20904083 44.59531312 223.21547699 40.44584167 C223.22286583 37.24087418 223.24287378 34.03597827 223.26074219 30.83105469 C223.25926933 29.12476395 223.25926933 29.12476395 223.25776672 27.38400269 C223.38844793 10.48890317 223.38844793 10.48890317 227.86035156 4.67700195 C233.29853508 -0.38177341 238.58931024 -0.13064584 245.66894531 -0.1237793 C246.64646255 -0.12806442 247.6239798 -0.13234955 248.63111877 -0.13676453 C250.69458239 -0.14249708 252.7580662 -0.14301602 254.8215332 -0.13867188 C257.9708925 -0.13551255 261.11931146 -0.15898263 264.26855469 -0.18432617 C266.27701705 -0.1865994 268.28548193 -0.18730255 270.29394531 -0.1862793 C271.2316124 -0.19548904 272.16927948 -0.20469879 273.13536072 -0.21418762 C279.5790243 -0.16880222 284.06607589 0.69522628 288.79785156 5.42700195 C293.36365533 12.60183644 292.83347809 20.1667729 292.80854797 28.41036987 C292.81157078 29.76293369 292.81546092 31.11549579 292.82014054 32.46805489 C292.83041262 36.17460973 292.82824075 39.88106776 292.82395995 43.58763051 C292.82149128 47.58909092 292.83050864 51.5905281 292.83799744 55.59197998 C292.85074261 63.42737643 292.85253835 71.26273861 292.85019717 79.09814368 C292.84841363 85.4675644 292.85016443 91.83697472 292.85442162 98.2063942 C292.8550168 99.11316575 292.85561199 100.0199373 292.85622522 100.95418677 C292.85743698 102.79634046 292.85865111 104.63849414 292.8598676 106.48064782 C292.87074246 123.7540222 292.86858091 141.02737705 292.86248275 158.30075254 C292.85731377 174.0984427 292.86856863 189.8960712 292.88758097 205.69374917 C292.90695903 221.91986814 292.91521542 238.14595794 292.91145772 254.37208855 C292.90954561 263.4797882 292.91203418 272.58743537 292.92617226 281.69512558 C292.93808662 289.44870275 292.93949033 297.20219512 292.92738209 304.95577346 C292.92149376 308.91031255 292.92039264 312.86469655 292.93238449 316.81922531 C292.94324442 320.44264431 292.94013881 324.06577875 292.92612281 327.68918444 C292.92222686 329.61383642 292.93302212 331.53850103 292.94441968 333.4631232 C292.89656944 341.13980705 292.76064741 348.79054147 287.23535156 354.61450195 C281.36408515 358.02802894 276.11421726 358.48515232 269.49316406 358.4777832 C268.63278534 358.48206833 267.77240662 358.48635345 266.88595581 358.49076843 C265.0722542 358.49649128 263.25852964 358.49702713 261.44482422 358.49267578 C258.68839833 358.48951975 255.93305097 358.51298655 253.17675781 358.53833008 C251.4072279 358.54060387 249.63769514 358.5413062 247.86816406 358.5402832 C247.0533255 358.54949295 246.23848694 358.5587027 245.3989563 358.56819153 C238.52421674 358.51335285 232.90522176 357.32938344 227.67285156 352.55200195 C222.88124933 344.94181018 223.26099672 336.33934708 223.29248047 327.59228516 C223.28704979 325.74671524 223.28704979 325.74671524 223.2815094 323.86386108 C223.27464133 321.20546371 223.27121536 318.54732069 223.27345657 315.88894081 C223.27630817 311.68168489 223.26187145 307.47459433 223.24447632 303.26737976 C223.19761788 291.31011387 223.17349934 279.35286158 223.16699219 267.39550781 C223.16323906 260.77781 223.14519743 254.16030175 223.11189783 247.54268521 C223.09172475 243.36358614 223.08929196 239.18497724 223.100178 235.00584948 C223.10340255 231.79500222 223.08068505 228.58431838 223.06201172 225.37353516 C223.07018417 224.22170242 223.07835663 223.06986969 223.08677673 221.88313293 C223.02494844 215.91575625 222.96981403 211.63545925 218.54785156 207.17700195 C212.11053777 203.02532067 204.88945775 203.75326446 197.46191406 203.78881836 C196.03382975 203.78474877 194.60574859 203.77940472 193.17767334 203.77288818 C189.31402562 203.75925468 185.45061921 203.76449671 181.58696747 203.77402544 C177.53567372 203.78164267 173.48440006 203.77457071 169.43310547 203.76986694 C162.6308218 203.76441539 155.82863598 203.77158522 149.02636719 203.78588867 C141.17202983 203.80221407 133.31792613 203.79692513 125.46359444 203.78040946 C118.70923938 203.76677745 111.9549545 203.76488329 105.20059013 203.77272546 C101.17122444 203.77739257 97.14196843 203.7780534 93.11260986 203.768116 C89.32368327 203.75942359 85.53505673 203.76550943 81.74616241 203.78279877 C80.35907742 203.78675152 78.971967 203.78565037 77.58489227 203.77901077 C67.63467561 203.65846599 67.63467561 203.65846599 58.54785156 207.17700195 C54.50099021 211.436856 53.42541782 214.64855492 53.40982056 220.42596436 C53.40436722 221.51381226 53.39891388 222.60166016 53.39329529 223.72247314 C53.39225296 224.91628601 53.39121063 226.11009888 53.39013672 227.34008789 C53.38233753 229.26989657 53.37453429 231.19970523 53.36657882 233.12951326 C53.35886457 235.20490922 53.35348214 237.28030077 53.34862137 239.35570526 C53.33793284 243.68454535 53.31768489 248.01330751 53.29550171 252.34210205 C53.23360884 264.65194115 53.17959873 276.96177589 53.14648438 289.27172852 C53.12811667 296.06993087 53.09915309 302.86800285 53.05847967 309.66610932 C53.03744409 313.26181177 53.02195733 316.85735015 53.01967239 320.45311737 C53.01711834 324.46770652 52.99161918 328.48184045 52.96435547 332.49633789 C52.96886467 334.2749118 52.96886467 334.2749118 52.97346497 336.0894165 C52.89970006 343.39826984 52.30528037 348.53325674 47.79785156 354.48950195 C42.36669417 358.56287 35.91098307 358.48508081 29.39550781 358.4777832 C28.10706215 358.48421089 28.10706215 358.48421089 26.79258728 358.49076843 C24.98486203 358.49648405 23.1771138 358.49703253 21.36938477 358.49267578 C18.62182966 358.48951516 15.87535208 358.51301161 13.12792969 358.53833008 C11.36295707 358.54060348 9.59798159 358.54130638 7.83300781 358.5402832 C7.0213063 358.54949295 6.2096048 358.5587027 5.37330627 358.56819153 C-0.46967056 358.5213896 -6.48766794 357.86019973 -11.01719666 353.76045227 C-14.75769015 349.44490131 -15.57651841 346.17213582 -15.58636951 340.61400318 C-15.59082736 339.4495095 -15.5952852 338.28501583 -15.59987813 337.08523446 C-15.59969377 335.79985321 -15.59950941 334.51447197 -15.59931946 333.19013977 C-15.60261827 331.81556777 -15.60634387 330.44099673 -15.61046094 329.06642693 C-15.62048714 325.28052277 -15.62419873 321.49463446 -15.62685025 317.7087189 C-15.63075146 313.62881904 -15.64032993 309.54893175 -15.64906311 305.46903992 C-15.66883268 295.61180821 -15.67889435 285.75457546 -15.6877909 275.89732888 C-15.69217299 271.25658128 -15.69754 266.61583482 -15.70277977 261.97508812 C-15.71979253 246.5502372 -15.73428703 231.125387 -15.74152851 215.70052814 C-15.74343844 211.69699922 -15.74535877 207.69347031 -15.74731445 203.68994141 C-15.74779819 202.69487106 -15.74828193 201.69980071 -15.74878033 200.67457672 C-15.75708185 184.55261947 -15.7824206 168.43073638 -15.81489513 152.30881152 C-15.84795652 135.76077483 -15.86597644 119.21277583 -15.86917275 102.66470593 C-15.8713387 93.37195213 -15.88009976 84.07930649 -15.90563393 74.78658485 C-15.92732835 66.87294159 -15.93539755 58.95943274 -15.92566714 51.04576311 C-15.92111878 47.00828981 -15.92303965 42.97109395 -15.94242859 38.9336586 C-15.96003507 35.23543943 -15.95908337 31.53770058 -15.9435313 27.83947649 C-15.9400263 25.87212486 -15.95620033 23.90476833 -15.97313577 21.93748647 C-15.92166107 14.87375497 -15.29616676 10.16669862 -11.45214844 4.17700195 C-7.95707236 0.89374867 -4.71400606 0.05878525 0 0 Z " fill="#022F51" transform="translate(843.4521484375,186.822998046875)"/>
<path d="M0 0 C0.8284544 -0.00384115 1.65690881 -0.00768229 2.51046789 -0.01163983 C3.42047351 -0.01077335 4.33047913 -0.00990687 5.26806068 -0.00901413 C6.71831672 -0.01347081 6.71831672 -0.01347081 8.19787085 -0.01801753 C11.45212126 -0.02672025 14.70633495 -0.0282141 17.96059608 -0.02970505 C20.28787248 -0.03433206 22.61514812 -0.03935656 24.94242287 -0.04475021 C31.27502332 -0.05788632 37.60761317 -0.06432138 43.94022512 -0.06876087 C47.89367854 -0.07168926 51.84712903 -0.07579359 55.80058098 -0.08026505 C66.74496198 -0.0923747 77.68934045 -0.10275682 88.63372803 -0.10614014 C89.68441907 -0.10646949 89.68441907 -0.10646949 90.75633619 -0.10680549 C91.8095478 -0.10713291 91.8095478 -0.10713291 92.88403642 -0.10746694 C94.30685449 -0.1079104 95.72967255 -0.10835697 97.15249062 -0.10880661 C97.85825826 -0.10902804 98.5640259 -0.10924947 99.29118045 -0.10947761 C110.73015988 -0.11342663 122.16907565 -0.13088412 133.60803048 -0.15416613 C145.350111 -0.17787239 157.09215956 -0.19034164 168.8342644 -0.19150805 C175.4279196 -0.19255792 182.021485 -0.19850442 188.61511803 -0.21632767 C194.81536191 -0.23276133 201.01544802 -0.23498674 207.21570587 -0.22618866 C209.49376853 -0.2254158 211.7718395 -0.22979363 214.04988098 -0.23964691 C217.15510534 -0.25229242 220.25976465 -0.24652977 223.36498451 -0.23606491 C224.27052869 -0.24412132 225.17607287 -0.25217772 226.10905778 -0.26047826 C231.92025065 -0.21454298 235.13894126 0.81214706 239.68178749 4.56892776 C245.93252664 12.3097812 243.45720974 29.0682794 242.66616249 38.40486526 C241.82402339 43.74643327 240.43563743 46.78844641 235.94350624 50.13142776 C231.8758934 52.150144 228.52036518 52.38369611 224.00467873 52.38971329 C222.97556544 52.39522684 222.97556544 52.39522684 221.92566198 52.40085179 C219.63343808 52.41080869 217.34145788 52.40668565 215.04921913 52.402668 C213.40306275 52.40705636 211.75690858 52.41235892 210.11075783 52.41850662 C206.56893557 52.42999873 203.02717308 52.43546546 199.48533249 52.43638802 C193.88380561 52.43832971 188.28240227 52.45638808 182.68091774 52.47714615 C168.76813585 52.52631976 154.85532045 52.55722275 140.94246864 52.57844925 C130.12899411 52.59497184 119.31562554 52.61778246 108.502222 52.66147 C102.93498564 52.68324656 97.36795058 52.6913042 91.80067456 52.68907726 C88.33576619 52.69074472 84.87098912 52.70479758 81.40612793 52.72229004 C79.80093402 52.72788628 78.19571285 52.72837777 76.59051704 52.72335243 C74.39648402 52.71720438 72.2032785 52.72945366 70.0093174 52.7461586 C68.78245248 52.74816993 67.55558756 52.75018126 66.29154491 52.75225353 C62.53390669 53.177816 60.13909411 54.12927977 56.94350624 56.13142776 C54.09521323 61.04320093 53.50716843 65.49605901 53.55532265 71.06697464 C53.55006569 71.82728485 53.54480873 72.58759506 53.53939247 73.37094498 C53.52627477 75.86423652 53.53490094 78.35688063 53.54506874 80.85017776 C53.54304563 82.59460446 53.54013222 84.33903032 53.53637123 86.08345413 C53.53195903 89.73152631 53.53834324 93.37937746 53.55239296 97.02742386 C53.56948423 101.69120505 53.55963711 106.35446822 53.54167557 111.01823044 C53.53080781 114.61801901 53.53429777 118.21768584 53.54205894 121.81747818 C53.54405269 123.53658485 53.54163084 125.25570276 53.53462029 126.9747963 C53.52695629 129.38212012 53.53867828 131.78861818 53.55532265 134.19588089 C53.54924995 134.89842499 53.54317726 135.60096909 53.53692055 136.3248024 C53.59924504 141.21842499 54.48505987 144.89193034 56.94350624 149.13142776 C62.16172939 153.19416754 68.30502777 152.55153149 74.62099648 152.51619339 C76.3757177 152.52425255 76.3757177 152.52425255 78.16588783 152.53247452 C80.70145391 152.54224503 83.23705339 152.54519888 85.77263641 152.54211807 C89.78680124 152.53763905 93.80051679 152.55121604 97.81461525 152.57051468 C106.33673036 152.60830973 114.85882019 152.62115964 123.38100624 152.63142776 C132.57938518 152.64251389 141.77763241 152.65793825 150.97592121 152.70214033 C155.60269032 152.7233851 160.22913655 152.72164807 164.85596657 152.71602249 C167.28285505 152.72536359 169.70974054 152.73553253 172.13662148 152.74666214 C173.78189072 152.7374398 173.78189072 152.7374398 175.46039772 152.72803116 C181.39700012 152.77581614 185.72816675 153.20668382 190.94350624 156.13142776 C196.78454963 162.27989449 196.19020933 168.22501163 196.23867226 176.30842972 C196.25579638 178.29458684 196.299682 180.28045464 196.34389687 182.26619339 C196.4373032 196.41365979 196.4373032 196.41365979 191.94350624 201.13142776 C186.27480267 204.90393174 180.8272986 204.55290403 174.26601601 204.51619339 C172.51129478 204.52425255 172.51129478 204.52425255 170.72112465 204.53247452 C168.18555858 204.54224503 165.64995909 204.54519888 163.11437607 204.54211807 C159.10021124 204.53763905 155.08649569 204.55121604 151.07239723 204.57051468 C142.55028212 204.60830973 134.0281923 204.62115964 125.50600624 204.63142776 C116.3076273 204.64251389 107.10938007 204.65793825 97.91109127 204.70214033 C93.28432216 204.7233851 88.65787593 204.72164807 84.03104591 204.71602249 C81.60415743 204.72536359 79.17727195 204.73553253 76.75039101 204.74666214 C75.65354485 204.74051392 74.55669868 204.73436569 73.42661476 204.72803116 C67.489964 204.77581653 63.16767091 205.22663772 57.94350624 208.13142776 C53.82552897 212.52393686 53.79122348 216.95476541 53.78237343 222.70466995 C53.77740852 223.47414963 53.77244362 224.2436293 53.76732826 225.03642654 C53.75271647 227.58372771 53.74590554 230.13096656 53.74038124 232.67830276 C53.73462805 234.45086544 53.72887033 236.2234281 53.72310829 237.99599075 C53.71260046 241.7149675 53.70675668 245.43392264 53.70327187 249.15291214 C53.69779404 253.90867729 53.67378038 258.66415513 53.64529991 263.41983032 C53.62663512 267.08307593 53.62146584 270.74625295 53.61993599 274.40954208 C53.61691653 276.1621571 53.60891194 277.91477112 53.59575081 279.66733932 C53.57861317 282.12531455 53.58058937 284.58259601 53.58706093 287.04060745 C53.57784615 287.75878647 53.56863136 288.47696548 53.55913734 289.2169075 C53.59970231 294.15842406 54.45234282 297.85315927 56.94350624 302.13142776 C61.37796898 304.90600264 64.77342519 305.50693222 69.95789528 305.5099678 C70.64003611 305.51449793 71.32217694 305.51902806 72.02498871 305.52369547 C74.29807401 305.53527134 76.57056536 305.5256924 78.84365273 305.51619339 C80.47848323 305.52030074 82.11331082 305.52576258 83.74813271 305.53247452 C87.26268503 305.54418445 90.77708039 305.54668925 94.29164886 305.54211807 C99.85155035 305.53530098 105.41124578 305.55118913 110.97110939 305.57051468 C122.77439726 305.60835287 134.57766703 305.62116717 146.38100624 305.63142776 C159.12085936 305.64250483 171.86061742 305.65787301 184.60040528 305.70214033 C190.1247305 305.72047962 195.64881968 305.724395 201.17316806 305.71720505 C204.61298582 305.71568118 208.05268591 305.72647976 211.49247169 305.74058342 C213.08435115 305.74457954 214.67625309 305.74347219 216.26812363 305.73681068 C218.44641328 305.72839718 220.62389232 305.73845493 222.80213356 305.75288773 C224.62803851 305.75395649 224.62803851 305.75395649 226.49083042 305.75504684 C231.53136221 306.30452212 235.45904123 307.76732478 239.25600624 311.25642776 C243.07906559 317.76978814 243.26585644 325.23964917 243.19350624 332.63142776 C243.20124062 333.42162308 243.20897499 334.21181839 243.21694374 335.02595901 C243.19481636 341.78587355 242.90071609 348.57618157 238.69350624 354.06892776 C232.97964743 358.35432187 227.3627906 358.42170994 220.50615883 358.39212418 C219.0919849 358.3978625 219.0919849 358.3978625 217.64924181 358.40371674 C214.49418058 358.41402492 211.33930207 358.4100587 208.1842289 358.40608597 C205.92048919 358.41043365 203.65675095 358.41561699 201.39301491 358.42157364 C195.2463183 358.43496901 189.09968316 358.43554168 182.9529748 358.43301034 C177.82121993 358.43194096 172.68947751 358.43682318 167.55772531 358.44161576 C154.7583642 358.45334741 141.95904725 358.45248481 129.15968554 358.44605895 C118.05271077 358.44089083 106.94582373 358.45214317 95.83886631 358.47115717 C84.4254998 358.49054544 73.01219094 358.49849853 61.59880483 358.49503392 C55.19457651 358.49322068 48.79042853 358.49586139 42.3862133 358.50974846 C36.36319638 358.52232008 30.34035506 358.52038882 24.31734085 358.50733757 C22.10826686 358.50497078 19.89918054 358.50771012 17.6901207 358.51596069 C14.67148375 358.52642095 11.6534368 358.51833291 8.63482094 358.50564957 C7.76340733 358.51302385 6.89199373 358.52039814 5.99417365 358.52799588 C-0.58279739 358.46997452 -6.52924793 357.59216713 -11.43149376 352.81892776 C-14.29443944 348.08405606 -15.30619726 343.74555016 -15.31096935 338.24613762 C-15.31680155 337.08612098 -15.32263374 335.92610435 -15.32864267 334.73093569 C-15.32486334 333.46596581 -15.32108402 332.20099593 -15.31719017 330.89769363 C-15.32021197 329.5329058 -15.32410159 328.16811965 -15.32878274 326.8033365 C-15.33906792 323.05838733 -15.3368796 319.31353385 -15.33260214 315.56857681 C-15.33013586 311.52758119 -15.33914788 307.48660866 -15.34663963 303.44562149 C-15.35939147 295.5308805 -15.36117971 287.61617343 -15.35883937 279.7014239 C-15.35705656 273.26808816 -15.35880507 266.83476273 -15.36306381 260.40142822 C-15.363659 259.48590637 -15.36425419 258.57038453 -15.36486742 257.62711959 C-15.36607916 255.76724765 -15.3672933 253.9073757 -15.36850979 252.04750375 C-15.37938725 234.60391335 -15.37722189 217.16034228 -15.37112495 199.71675079 C-15.36595588 183.75989183 -15.37721059 167.80309392 -15.39622317 151.84624703 C-15.41559667 135.46083286 -15.4238584 119.07544758 -15.42009991 102.69002187 C-15.41818709 93.49123652 -15.42068329 84.29250313 -15.43481445 75.09372711 C-15.44672302 67.26251004 -15.44813904 59.43137692 -15.43602429 51.60015871 C-15.43013185 47.60524569 -15.42904619 43.61048625 -15.44102669 39.61558342 C-15.45187277 35.95640286 -15.44879748 32.29750435 -15.434765 28.63833706 C-15.43086174 26.69202128 -15.44167562 24.74569304 -15.45306188 22.79940665 C-15.41225829 16.201839 -14.9943361 11.08562975 -12.05649376 5.13142776 C-8.30110909 1.46992771 -5.20848682 0.00906628 0 0 Z " fill="#022F51" transform="translate(3260.0564937591553,186.86857223510742)"/>
<path d="M0 0 C1.01813278 -0.00699417 2.03626556 -0.01398834 3.08525085 -0.02119446 C4.24357925 -0.04018295 5.40190765 -0.05917145 6.59533691 -0.07873535 C7.84328537 -0.07175125 9.09123383 -0.06476715 10.3769989 -0.05757141 C11.66430405 -0.06472672 12.95160919 -0.07188202 14.27792358 -0.07925415 C17.0025621 -0.09112862 19.72638357 -0.08444231 22.45097351 -0.06513977 C25.92841841 -0.04231257 29.40340989 -0.06896066 32.88061237 -0.11020184 C36.21289111 -0.14207183 39.54457825 -0.12877245 42.8769989 -0.12007141 C44.11887466 -0.13535385 45.36075043 -0.15063629 46.64025879 -0.16638184 C56.29081752 -0.03675895 56.29081752 -0.03675895 60.4382782 3.32695007 C63.08704008 6.09914063 65.12919708 9.07711122 66.98246765 12.43852234 C67.91554749 14.10358826 67.91554749 14.10358826 68.86747742 15.80229187 C69.52046776 16.99870171 70.1733791 18.19515467 70.82621765 19.39164734 C71.52382644 20.6449408 72.22299256 21.89736857 72.92362976 23.14897156 C74.36231916 25.72084025 75.7951584 28.29583368 77.22416687 30.87309265 C80.37696856 36.54375554 83.63472349 42.15364698 86.88871765 47.76664734 C88.13116819 49.91753708 89.37335567 52.06857881 90.61528015 54.21977234 C91.85218336 56.36044123 93.08916244 58.50106628 94.32621765 60.64164734 C102.022059 73.95841126 109.7023999 87.28351424 117.32621765 100.64164734 C124.39829746 113.03181421 131.50009928 125.40439751 138.65141296 137.74906921 C139.73573587 139.62181817 140.81851954 141.49545955 141.89945984 143.37016296 C143.28708911 145.77587489 144.68058957 148.17806959 146.07621765 150.57914734 C146.47050964 151.26517029 146.86480164 151.95119324 147.27104187 152.65800476 C150.63514774 158.53134497 150.63514774 158.53134497 156.32621765 161.64164734 C161.42996674 162.01970283 164.19764662 161.66888791 168.32621765 158.64164734 C170.19404813 156.16061513 170.19404813 156.16061513 171.7519989 153.20805359 C172.37526062 152.09881531 172.99852234 150.98957703 173.64067078 149.84672546 C174.30678661 148.63258773 174.97279936 147.41839343 175.63871765 146.20414734 C176.34376819 144.94103443 177.05017279 143.67867648 177.75785828 142.41703796 C179.22682765 139.79574621 180.68992034 137.17130372 182.14897156 134.54447937 C185.48716663 128.54589062 188.91092029 122.59657889 192.32621765 116.64164734 C193.66046158 114.308834 194.99333682 111.9752397 196.32621765 109.64164734 C196.99285913 108.47496628 197.65952578 107.3082996 198.32621765 106.14164734 C198.65621765 105.56414734 198.98621765 104.98664734 199.32621765 104.39164734 C202.32621764 99.14164735 202.32621764 99.14164735 203.32620239 97.39167786 C203.9929243 96.22491197 204.65964183 95.05814358 205.32635498 93.89137268 C206.99214049 90.97620356 208.65800192 88.06107787 210.32402039 85.14604187 C213.33458917 79.87827071 216.34458965 74.61017883 219.35179138 69.34048462 C227.50048273 55.06106197 235.65863573 40.78722871 243.90434265 26.56352234 C246.0642193 22.83719454 248.20051838 19.09950532 250.31059265 15.34477234 C251.19079659 13.79789484 252.07100459 12.25101965 252.95121765 10.70414734 C253.32875183 10.01812439 253.70628601 9.33210144 254.09526062 8.62528992 C256.36279343 4.67475069 258.24379625 2.62733325 262.32621765 0.64164734 C265.14044189 0.26069641 265.14044189 0.26069641 268.24638367 0.25346375 C269.99828758 0.23927902 269.99828758 0.23927902 271.7855835 0.22480774 C273.663881 0.23391678 273.663881 0.23391678 275.5801239 0.24320984 C276.87312912 0.24033966 278.16613434 0.23746948 279.49832153 0.23451233 C282.22939353 0.23009957 284.96017031 0.23648677 287.69120789 0.25053406 C291.18731659 0.26764289 294.68273517 0.25776824 298.1788187 0.23981667 C301.52097549 0.22635703 304.86294752 0.23578547 308.2051239 0.24320984 C310.08645775 0.2341008 310.08645775 0.2341008 312.00579834 0.22480774 C313.75297401 0.23899246 313.75297401 0.23899246 315.53544617 0.25346375 C317.07169395 0.25704391 317.07169395 0.25704391 318.63897705 0.26069641 C321.72073136 0.69757473 323.0941912 1.50667435 325.32621765 3.64164734 C326.66872768 8.0644662 325.88224558 12.31035761 324.12992859 16.50590515 C322.42591857 19.66840567 320.59820872 22.71602127 318.70121765 25.76664734 C317.66637765 27.49232259 316.63155688 29.21800997 315.59823608 30.94459534 C314.53914582 32.70733561 313.47064131 34.46405992 312.39994812 36.21977234 C309.27548781 41.35577238 306.27756857 46.56528237 303.26371765 51.76664734 C302.10703567 53.74892614 300.9494832 55.73069726 299.7910614 57.71195984 C296.29945987 63.68658744 292.81243946 69.66387943 289.32621765 75.64164734 C285.83999584 81.61941524 282.35297543 87.59670723 278.8613739 93.57133484 C272.85844706 103.84697291 266.88433978 114.13803297 260.95121765 124.45414734 C255.15432506 134.52921447 249.25348472 144.5387749 243.31156921 154.52885437 C237.44834966 164.40112512 231.70752492 174.341176 225.98246765 184.29399109 C222.40887439 190.50501022 218.81114873 196.70168762 215.20121765 202.89164734 C214.63427185 203.86480896 214.06732605 204.83797058 213.48320007 205.84062195 C210.54604451 210.87304646 207.58642233 215.89082359 204.5957489 220.89164734 C203.99456238 221.89937195 203.39337585 222.90709656 202.77397156 223.94535828 C201.62841616 225.86277334 200.47856971 227.77763339 199.32377625 229.6894989 C198.55734802 230.97292175 198.55734802 230.97292175 197.7754364 232.28227234 C197.10000793 233.40424011 197.10000793 233.40424011 196.41093445 234.5488739 C194.59578413 238.05089247 194.20125401 241.22430051 194.19491577 245.13769531 C194.19090759 246.03339233 194.18689941 246.92908936 194.18276978 247.85192871 C194.18329849 248.82707932 194.18382721 249.80222992 194.18437195 250.80693054 C194.18089752 251.83990265 194.1774231 252.87287476 194.17384338 253.93714905 C194.16649252 256.18028539 194.16114357 258.42342897 194.15755272 260.66657448 C194.15038398 264.21839923 194.1347144 267.7700861 194.11621094 271.3218689 C194.06375899 281.42054869 194.01576011 291.51915259 194.00028992 301.6179657 C193.99020626 307.79540073 193.96087248 313.97248827 193.91897011 320.149786 C193.90666194 322.50244201 193.9015385 324.85514709 193.90376854 327.20783424 C193.90612252 330.50166005 193.8839465 333.79448944 193.85624695 337.08818054 C193.86284836 338.05725845 193.86944977 339.02633636 193.87625122 340.02478027 C193.79273016 346.08174385 192.87649594 349.68685099 189.32621765 354.64164734 C183.59427189 359.05083638 177.29107965 358.80907394 170.3691864 358.84477234 C169.50739273 358.85047241 168.64559906 358.85617249 167.75769043 358.86204529 C165.93801593 358.87146848 164.11832456 358.87801858 162.29862976 358.88188171 C159.53343014 358.89157821 156.7689772 358.92262305 154.00395203 358.95414734 C152.22986786 358.96067932 150.45577843 358.96592903 148.6816864 358.96977234 C147.45472298 358.98829254 147.45472298 358.98829254 146.20297241 359.00718689 C140.33318058 358.98472023 134.31498575 358.34756534 129.76144409 354.22496033 C126.42742535 350.37947806 125.19792611 347.3121588 125.21510315 342.31295776 C125.21543045 341.42875153 125.21575775 340.54454529 125.21609497 339.63354492 C125.22133682 338.66579636 125.22657867 337.69804779 125.23197937 336.70097351 C125.23476674 334.58298761 125.23743653 332.46500156 125.24000549 330.34701538 C125.24305569 329.22151464 125.24610588 328.09601391 125.2492485 326.93640709 C125.26059709 320.96637715 125.24007921 314.9964231 125.22465515 309.02641296 C125.20640502 301.43358002 125.19755883 293.84115154 125.22660828 286.24833679 C125.2492515 280.11077292 125.23757577 273.97408921 125.20360184 267.83658791 C125.19686524 265.50643986 125.20242183 263.17622015 125.22095871 260.84613609 C125.32177334 247.29166078 124.91985163 237.14616309 117.32621765 225.64164734 C116.11241672 223.54920558 114.90456265 221.45329232 113.7051239 219.35258484 C112.43720934 217.23806901 111.16492626 215.12616769 109.88871765 213.01664734 C108.46975765 210.65160221 107.05558659 208.283717 105.6426239 205.91508484 C105.28415375 205.31468384 104.92568359 204.71428284 104.55635071 204.09568787 C100.72464396 197.66119649 97.02232046 191.15464695 93.32621765 184.64164734 C88.08729102 175.41714881 82.75794224 166.25463839 77.32621765 157.14164734 C71.54871968 147.44854039 65.89979104 137.69229777 60.32621765 127.88139343 C55.41760568 119.2457836 50.41208395 110.6746008 45.32621765 102.14164734 C39.85726956 92.96406465 34.48487533 83.73906646 29.20121765 74.45414734 C24.21980581 65.70175736 19.21345598 56.96538841 14.13871765 48.26664734 C13.57563904 47.2975946 13.01256042 46.32854187 12.43241882 45.3301239 C9.54462592 40.37533625 6.61017375 35.45654834 3.59965515 30.57524109 C2.99790466 29.58894714 2.39615417 28.6026532 1.77616882 27.58647156 C0.6390192 25.7267696 -0.51098565 23.87483873 -1.6764679 22.03276062 C-4.73006884 17.01582092 -7.74545638 11.70367737 -6.67378235 5.64164734 C-3.60656578 0.86549428 -3.60656578 0.86549428 0 0 Z " fill="#022F51" transform="translate(2525.673782348633,186.3583526611328)"/>
<path d="M0 0 C0.89490646 -0.01606293 1.78981293 -0.03212585 2.71183777 -0.04867554 C6.80918481 -0.09333152 10.90637238 -0.13420496 15.00390625 -0.15722656 C17.15994073 -0.17376032 19.31592098 -0.20101602 21.47167969 -0.23925781 C24.58988716 -0.29425265 27.70681116 -0.31593709 30.82543945 -0.33056641 C31.78093185 -0.35323578 32.73642426 -0.37590515 33.72087097 -0.39926147 C39.30622647 -0.38178147 43.13820073 0.48710612 47.89826965 3.43392944 C53.37343177 9.21644145 52.98994367 16.30225478 52.94226074 23.77601624 C52.94679087 24.93749268 52.951321 26.09896913 52.95598841 27.29564184 C52.96558217 30.5064052 52.96185186 33.71683157 52.95248342 36.92758524 C52.94567254 40.39524969 52.95622694 43.86286611 52.96476746 47.33052063 C52.97732104 53.3354451 52.97931136 59.34029756 52.97441101 65.34523201 C52.96759827 74.03383341 52.98012838 82.72232638 52.99791819 91.41090839 C53.0265542 105.51701686 53.04407757 119.62311361 53.05249023 133.72924805 C53.053251 134.99495138 53.053251 134.99495138 53.05402714 136.28622448 C53.05805931 143.13314904 53.06155336 149.98007385 53.06502438 156.82699871 C53.06808193 162.81362104 53.07135412 168.8002432 53.07495117 174.78686523 C53.07545379 175.62994049 53.0759564 176.47301576 53.07647425 177.34163875 C53.08521695 191.39700604 53.10564914 205.45233302 53.13443327 219.5076732 C53.15161486 228.17513252 53.15819738 236.84247783 53.15112722 245.50995194 C53.14694955 251.4468895 53.15329226 257.38375511 53.16792595 263.32067592 C53.1759874 266.74625343 53.17908924 270.17165259 53.16910362 273.597229 C53.1607526 277.31056015 53.17067812 281.02340777 53.18518066 284.73670959 C53.17828673 285.81948702 53.17139279 286.90226445 53.16428995 288.01785332 C53.21074542 295.56038585 53.21074542 295.56038585 56.5637207 302.19287109 C60.80555811 305.02766873 64.18927187 305.56725353 69.22970581 305.56468201 C69.87438911 305.56850657 70.5190724 305.57233113 71.18329155 305.57627159 C73.32969437 305.5855098 75.47544413 305.57359546 77.62182617 305.56176758 C79.1663642 305.56423714 80.71090056 305.56807713 82.25543213 305.57318115 C85.57518988 305.58150541 88.89477601 305.58072324 92.21453476 305.57299614 C97.46806491 305.56139221 102.7213753 305.5735935 107.97488403 305.58961487 C121.02368858 305.62577409 134.07248778 305.63204064 147.12133789 305.6295166 C157.26357799 305.62780412 167.40563805 305.6349632 177.54782784 305.66949517 C182.76586947 305.68626019 187.98347146 305.6845195 193.20151114 305.66867244 C196.45348597 305.66286162 199.70525385 305.67364043 202.95719147 305.68891907 C204.45996376 305.6926346 205.96277126 305.68956822 207.46551132 305.67904854 C215.36978051 305.62742275 221.81199461 305.65775691 228.5637207 310.19287109 C233.67038848 316.78211983 232.81301214 324.47859173 232.8762207 332.44287109 C232.90522461 333.64556641 232.93422852 334.84826172 232.96411133 336.08740234 C233.01546048 343.28418362 232.54137251 348.12095288 228.5637207 354.19287109 C223.05710584 358.46049761 217.47951302 358.34023525 210.746521 358.33331299 C209.39616363 358.33776967 209.39616363 358.33776967 208.01852632 358.34231639 C204.9954958 358.35100282 201.9725049 358.3525116 198.94946289 358.35400391 C196.78453995 358.35863212 194.61961783 358.36365678 192.45469666 358.36904907 C186.56822077 358.38217479 180.68175629 358.38861838 174.79526806 358.39305973 C171.11800927 358.39599019 167.44075361 358.40009495 163.7634964 358.4045639 C152.2593092 358.4182393 140.75512913 358.42790575 129.25093436 358.43176579 C115.96901052 358.43624675 102.68718959 358.45379628 89.40529704 358.48276639 C79.14020602 358.50437948 68.87514395 358.51446988 58.61003041 358.51580691 C52.47851307 358.51685521 46.34709246 358.52276832 40.21559906 358.54062653 C34.44705713 358.55710065 28.6786847 358.55926581 22.91012764 358.55048752 C20.79457966 358.5497168 18.67902259 358.55406448 16.56349754 358.56394577 C13.67174841 358.576659 10.78060017 358.57079166 7.88885498 358.56036377 C6.63805244 358.57244838 6.63805244 358.57244838 5.36198115 358.58477712 C-0.4820383 358.53561132 -6.42839696 357.84754946 -11.00117135 353.81173825 C-15.09437919 349.17054827 -15.55985459 345.5086039 -15.57050037 339.52244186 C-15.57495822 338.35944053 -15.57941606 337.1964392 -15.58400899 335.99819541 C-15.58382463 334.71961795 -15.58364027 333.44104049 -15.58345032 332.12371826 C-15.58675016 330.752408 -15.59047599 329.38109871 -15.5945918 328.00979066 C-15.60460594 324.23754741 -15.60832764 320.46532007 -15.61098111 316.6930654 C-15.61488582 312.62613484 -15.62446395 308.55921685 -15.63319397 304.49229431 C-15.6529522 294.66959256 -15.66302313 284.84688979 -15.67192176 275.02417314 C-15.67630514 270.39886875 -15.68167177 265.77356551 -15.68691063 261.14826202 C-15.70392119 245.77398288 -15.71841602 230.39970444 -15.72565937 215.02541733 C-15.72756927 211.03615061 -15.7294896 207.04688389 -15.73144531 203.05761719 C-15.73192905 202.06610296 -15.73241279 201.07458873 -15.73291119 200.05302861 C-15.74121402 183.9861003 -15.76655597 167.91924638 -15.79902599 151.85235056 C-15.83208725 135.3585228 -15.85010723 118.86473286 -15.85330361 102.37087178 C-15.85546942 93.10943186 -15.86422858 83.84810046 -15.88976479 74.58669281 C-15.91145891 66.70052201 -15.9195285 58.8144861 -15.909798 50.92828885 C-15.90524974 46.90498509 -15.90716995 42.88195974 -15.92655945 38.85869408 C-15.94416641 35.17346721 -15.94321385 31.48872236 -15.92766216 27.80349055 C-15.92415734 25.84314546 -15.94033073 23.88279546 -15.95726663 21.9225204 C-15.90568754 14.86910911 -15.2720742 10.17486014 -11.4362793 4.19287109 C-7.94901647 0.91695752 -4.70344934 0.07691861 0 0 Z " fill="#022F51" transform="translate(2333.436279296875,186.80712890625)"/>
<path d="M0 0 C1.27149399 -0.00960754 2.54298798 -0.01921509 3.85301208 -0.02911377 C5.2471397 -0.03396101 6.6412694 -0.03824002 8.03540039 -0.04199219 C9.46025088 -0.04774316 10.88510134 -0.0535009 12.30995178 -0.05926514 C15.29843507 -0.06977418 18.28689146 -0.07561767 21.27539062 -0.07910156 C25.10678088 -0.08459051 28.9378165 -0.10862706 32.76909542 -0.13707352 C35.71245874 -0.15568554 38.65573632 -0.16090468 41.59915352 -0.16243744 C43.01177474 -0.16546705 44.42439435 -0.17350603 45.83695793 -0.18662262 C47.81180689 -0.20365346 49.78680183 -0.19996236 51.76171875 -0.1953125 C52.88597763 -0.19895813 54.01023651 -0.20260376 55.16856384 -0.20635986 C57.94555664 0.16113281 57.94555664 0.16113281 59.79396057 1.56622314 C61.70945252 4.21909485 61.72476651 6.3737363 61.60571289 9.58300781 C60.33436352 14.54804086 56.71030979 17.96184307 53.31030273 21.65917969 C50.94581097 24.26138959 48.70619399 26.96885788 46.44555664 29.66113281 C45.50831796 30.7655213 44.57081997 31.86968978 43.63305664 32.97363281 C41.20477953 35.84341485 38.81872442 38.74552669 36.44555664 41.66113281 C32.69767866 46.26566862 28.8757222 50.80132473 25.03149414 55.32519531 C22.13310841 58.74172821 19.27400564 62.18618119 16.44555664 65.66113281 C12.69767866 70.26566862 8.8757222 74.80132473 5.03149414 79.32519531 C2.13310841 82.74172821 -0.72599436 86.18618119 -3.55444336 89.66113281 C-7.30232134 94.26566862 -11.1242778 98.80132473 -14.96850586 103.32519531 C-17.86689159 106.74172821 -20.72599436 110.18618119 -23.55444336 113.66113281 C-27.30232134 118.26566862 -31.1242778 122.80132473 -34.96850586 127.32519531 C-37.86689159 130.74172821 -40.72599436 134.18618119 -43.55444336 137.66113281 C-46.84268204 141.70096891 -50.18180817 145.69192162 -53.55444336 149.66113281 C-61.22313278 158.69196238 -68.67559234 167.89233085 -76.05444336 177.16113281 C-74.69177692 181.19919147 -72.91352826 183.704814 -69.99194336 186.78613281 C-66.78783774 190.24534238 -63.70602067 193.74389848 -60.74194336 197.41113281 C-57.28602302 201.67844314 -53.76066437 205.87425057 -50.17944336 210.03613281 C-44.89180625 216.18129255 -39.64332298 222.3579909 -34.41333008 228.55224609 C-32.12898154 231.25685566 -29.84158454 233.95888483 -27.55444336 236.66113281 C-24.81467363 239.89815958 -22.07548789 243.13566812 -19.33959961 246.37597656 C-18.43213603 247.45027008 -17.52458376 248.52448869 -16.61694336 249.59863281 C-16.16722168 250.13085449 -15.7175 250.66307617 -15.25415039 251.21142578 C-12.34193157 254.65295097 -9.41088028 258.07766937 -6.47045898 261.49511719 C-2.4627908 266.15295207 1.51397277 270.82416917 5.38305664 275.59863281 C9.52616655 280.70420746 13.82786114 285.65913335 18.1484375 290.61401367 C22.04977305 295.09864132 25.83040826 299.66594951 29.57055664 304.28613281 C32.47051824 307.79661264 35.45322975 311.2293763 38.44555664 314.66113281 C42.97396747 319.85684724 47.4301842 325.09299498 51.73461914 330.47753906 C53.35548766 332.44491834 54.99194693 334.31978066 56.71899414 336.18847656 C64.58458279 344.82987167 64.58458279 344.82987167 64.82055664 350.16113281 C64.63971197 352.96954415 64.04889698 354.03212647 62.27157593 356.25086975 C59.3167623 358.6775355 57.77697365 358.66224581 53.98706055 358.6628418 C52.18466415 358.67691322 52.18466415 358.67691322 50.34585571 358.69126892 C48.40360611 358.67441795 48.40360611 358.67441795 46.42211914 358.65722656 C45.074574 358.65738163 43.7270284 358.65887193 42.37948608 358.66163635 C39.55658219 358.66301978 36.73418669 358.65047618 33.91137695 358.62768555 C30.30443386 358.59935478 26.69833867 358.60202373 23.09133339 358.61477566 C20.30820563 358.62175458 17.52527146 358.61391763 14.74216843 358.60151863 C12.76917366 358.59484347 10.79615159 358.59913523 8.82315063 358.60362244 C7.61524872 358.59093826 6.4073468 358.57825409 5.1628418 358.56518555 C4.10457184 358.55978256 3.04630188 358.55437958 1.95596313 358.54881287 C-3.03770068 357.905729 -6.93832697 355.8176375 -10.16772461 351.97363281 C-10.68866699 351.36310059 -11.20960938 350.75256836 -11.74633789 350.12353516 C-12.2811377 349.47594238 -12.8159375 348.82834961 -13.36694336 348.16113281 C-13.93525879 347.48904785 -14.50357422 346.81696289 -15.08911133 346.12451172 C-16.75620526 344.14634004 -18.40829267 342.15674854 -20.05444336 340.16113281 C-20.86526367 339.17886719 -21.67608398 338.19660156 -22.51147461 337.18457031 C-23.94953703 335.42780216 -25.38318544 333.6674109 -26.81225586 331.90332031 C-29.35698194 328.79112919 -31.95070252 325.7239354 -34.55444336 322.66113281 C-40.20319239 316.01094351 -45.72268204 309.25991832 -51.22631836 302.48925781 C-55.74856151 296.94068998 -60.33327615 291.45198486 -64.96801758 285.99755859 C-68.61399268 281.70001657 -72.18421616 277.3445548 -75.74194336 272.97363281 C-78.31590728 269.84313615 -80.93013422 266.74940821 -83.55444336 263.66113281 C-87.67849521 258.80796682 -91.73109873 253.90300316 -95.74975586 248.96191406 C-98.27477411 245.89337494 -100.84929105 242.87073469 -103.42944336 239.84863281 C-107.21235484 235.41263254 -110.86009001 230.89536123 -114.42944336 226.28613281 C-118.35341288 221.21991189 -122.44915976 216.34897145 -126.67944336 211.53613281 C-145.91791172 189.52016018 -145.91791172 189.52016018 -145.32788086 176.40332031 C-143.52450629 161.61564885 -130.82459292 150.10208983 -121.6862793 139.125 C-119.52433444 136.52316211 -117.38162898 133.90630924 -115.24194336 131.28613281 C-114.19586914 130.00609375 -114.19586914 130.00609375 -113.12866211 128.70019531 C-112.44416992 127.86230469 -111.75967773 127.02441406 -111.05444336 126.16113281 C-108.79821896 123.40308617 -106.54156319 120.64539284 -104.28491211 117.88769531 C-102.84944401 116.13295497 -101.4145054 114.37778127 -99.98022461 112.62207031 C-94.74239173 106.21274431 -89.48267117 99.82170086 -84.21899414 93.43359375 C-79.48457573 87.68658219 -74.76518307 81.92757502 -70.05444336 76.16113281 C-68.5545864 74.32768245 -67.05458396 72.4943511 -65.55444336 70.66113281 C-64.81194336 69.75363281 -64.06944336 68.84613281 -63.30444336 67.91113281 C-29.55444336 26.66113281 -29.55444336 26.66113281 -27.30834961 23.91894531 C-25.79136236 22.06280493 -24.27840935 20.20336092 -22.76928711 18.34082031 C-7.91601452 0.04811067 -7.91601452 0.04811067 0 0 Z " fill="#022F51" transform="translate(2204.054443359375,186.8388671875)"/>
<path d="M0 0 C0.88134109 -0.00960754 1.76268219 -0.01921509 2.67073059 -0.02911377 C4.09575142 -0.03548859 4.09575142 -0.03548859 5.54956055 -0.04199219 C6.52990768 -0.04769226 7.51025482 -0.05339233 8.52030945 -0.05926514 C10.59572267 -0.06871323 12.67115088 -0.07524836 14.74658203 -0.07910156 C17.91359813 -0.08879775 21.07996264 -0.11981932 24.24682617 -0.15136719 C26.26440045 -0.1578984 28.28197936 -0.16314841 30.29956055 -0.16699219 C31.24350174 -0.17933899 32.18744293 -0.19168579 33.1599884 -0.20440674 C39.56717803 -0.1828209 43.76876851 0.86126301 48.8737793 4.97363281 C52.25001382 9.19392597 52.87367178 13.76478896 52.87825489 19.04642296 C52.88408708 20.20643959 52.88991928 21.36645623 52.8959282 22.56162488 C52.89214888 23.82659476 52.88836956 25.09156464 52.88447571 26.39486694 C52.8874975 27.75965478 52.89138713 29.12444092 52.89606827 30.48922408 C52.90635346 34.23417324 52.90416514 37.97902673 52.89988768 41.72398376 C52.8974214 45.76497939 52.90643342 49.80595191 52.91392517 53.84693909 C52.92667701 61.76168008 52.92846525 69.67638715 52.92612491 77.59113668 C52.92434209 84.02447241 52.92609061 90.45779785 52.93034935 96.89113235 C52.93094454 97.8066542 52.93153973 98.72217605 52.93215295 99.66544098 C52.9333647 101.52531293 52.93457884 103.38518488 52.93579533 105.24505682 C52.94667278 122.68864723 52.94450743 140.1322183 52.93841048 157.57580979 C52.93324142 173.53266875 52.94449613 189.48946666 52.9635087 205.44631355 C52.98288221 221.83172772 52.99114394 238.217113 52.98738545 254.6025387 C52.98547263 263.80132406 52.98796882 273.00005745 53.00209999 282.19883347 C53.01400856 290.03005053 53.01542458 297.86118366 53.00330982 305.69240187 C52.99741739 309.68731489 52.99633172 313.68207433 53.00831223 317.67697716 C53.01915831 321.33615771 53.01608302 324.99505622 53.00205054 328.65422352 C52.99814728 330.6005393 53.00896116 332.54686754 53.02034742 334.49315393 C52.97361287 342.04970316 52.86161414 348.83578892 47.3112793 354.53613281 C41.40342252 358.10832529 36.03081493 358.46916692 29.31518555 358.46191406 C28.43023911 358.46619919 27.54529266 358.47048431 26.63352966 358.47489929 C24.76855319 358.48062257 22.9035544 358.48115767 21.03857422 358.47680664 C18.19874693 358.47364669 15.3599624 358.49713064 12.52026367 358.52246094 C10.7019056 358.52473427 8.88354475 358.52543727 7.06518555 358.52441406 C6.22331192 358.53362381 5.38143829 358.54283356 4.51405334 358.55232239 C-1.85740835 358.50277347 -6.61407849 357.40070758 -11.6887207 353.28613281 C-14.92746548 349.20771346 -15.62630512 345.46025396 -15.6306963 340.33083439 C-15.63652849 339.15764182 -15.64236068 337.98444925 -15.64836961 336.7757054 C-15.64459029 335.49089464 -15.64081096 334.20608389 -15.63691711 332.88233948 C-15.63993789 331.50049013 -15.64382701 330.11864246 -15.64850968 328.73679775 C-15.65880789 324.94012216 -15.65660324 321.14354081 -15.65232909 317.34685743 C-15.64986518 313.25203069 -15.65887183 309.15722684 -15.66636658 305.06240845 C-15.67912476 297.04058447 -15.68090589 289.01879395 -15.67856631 280.99696154 C-15.67678431 274.47777238 -15.67853026 267.95859339 -15.68279076 261.43940544 C-15.68338595 260.51206921 -15.68398113 259.58473298 -15.68459436 258.62929566 C-15.68580609 256.74550271 -15.68702023 254.86170977 -15.68823674 252.97791683 C-15.6991165 235.30643667 -15.69694766 217.63497559 -15.69085189 199.96349435 C-15.68568185 183.79182565 -15.69693971 167.62021716 -15.71595011 151.44856036 C-15.73531474 134.84848523 -15.74358696 118.2484386 -15.73982686 101.64835209 C-15.73791279 92.3266549 -15.74042243 83.00500898 -15.7545414 73.683321 C-15.76643863 65.7480851 -15.76787872 57.81293203 -15.75575123 49.87769503 C-15.74985098 45.82835529 -15.74879465 41.77916717 -15.76075363 37.72983742 C-15.77157334 34.02322848 -15.76855605 30.31689847 -15.75449195 26.6103028 C-15.75057473 24.63363088 -15.76142397 22.65694676 -15.77278882 20.68030363 C-15.7065054 9.86567765 -15.7065054 9.86567765 -12.3762207 5.16113281 C-8.39621774 1.47963007 -5.38409093 0.04745635 0 0 Z " fill="#022F51" transform="translate(2000.376220703125,186.8388671875)"/>
</svg>
