<?xml version="1.0" encoding="UTF-8"?>
<svg id="Layer_1" data-name="Layer 1" xmlns="http://www.w3.org/2000/svg" viewBox="0 0 165.74 129.18">
  <defs>
    <style>
      .cls-1 {
        fill: #fff;
      }
    </style>
  </defs>
  <path class="cls-1" d="M.15,52.56c.52,8.76,3.49,17.11,8.54,24.16,5.07,7.01,11.94,12.28,19.87,15.26,4.46,1.71,10.68,2.85,15.49,2.85h40.63c4.46,0,7.2-3.5,7.87-6.73.75-3.58-.55-7.01-3.42-8.96l-27.89-18.77c-1.83-1.25-4.11-1.7-6.28-1.25-2.21.5-4.18,1.89-5.4,3.86-2.39,3.91-1.25,9.04,2.58,11.67l4.35,3-13.57.03c-6.39,0-12.43-2.5-17.47-7.25-5.86-5.49-8.84-13.28-8.84-23.17-.03-7.14,1.71-17.1,10.13-24.1,4.84-4.06,10.41-6.12,16.58-6.12h67.82c3.61,0,6.52-2.96,6.46-6.56l-.06-4.11C117.48,2.83,114.6,0,111.07,0H42.98C20.36.01,1.55,18.57.15,42.24c-.1,1.84-.15,3.5-.15,5.24s.05,3.38.15,5.08Z"/>
  <path class="cls-1" d="M165.58,76.62c-.52-8.76-3.49-17.11-8.54-24.16-5.07-7.01-11.94-12.28-19.87-15.26-4.46-1.71-10.68-2.85-15.49-2.85h-40.63c-4.46,0-7.2,3.5-7.87,6.73-.75,3.58.55,7.01,3.42,8.96l27.89,18.77c1.83,1.25,4.11,1.7,6.28,1.25,2.21-.5,4.18-1.89,5.4-3.86,2.39-3.91,1.25-9.04-2.58-11.67l-4.35-3,13.57-.03c6.39,0,12.43,2.5,17.47,7.25,5.86,5.49,8.84,13.28,8.84,23.17.03,7.14-1.71,17.1-10.13,24.1-4.84,4.06-10.41,6.12-16.58,6.12H55.42c-3.61,0-6.52,2.96-6.46,6.56l.06,4.11c.06,3.53,2.93,6.36,6.46,6.36h67.27c22.63-.01,41.44-18.57,42.83-42.24.1-1.84.15-3.5.15-5.24s-.05-3.38-.15-5.08Z"/>
</svg>